<?xml version="1.0" encoding="UTF-8"?>
<svg version="1.1" xmlns="http://www.w3.org/2000/svg" width="250" height="231">
<path d="M0 0 C1.20398438 0.37382812 2.40796875 0.74765625 3.6484375 1.1328125 C26.73396232 8.69444861 47.70859936 25.87307495 59.25292969 47.32861328 C71.05070046 70.7149745 75.5944179 95.39310451 69 121 C68.73316406 122.06347656 68.46632812 123.12695312 68.19140625 124.22265625 C63.86729346 139.73180745 56.70701394 153.03290389 46 165 C45.5472168 165.50789062 45.09443359 166.01578125 44.62792969 166.5390625 C38.17358162 173.64954833 31.16089171 178.99993949 23 184 C22.17886719 184.54398438 21.35773438 185.08796875 20.51171875 185.6484375 C7.18100076 194.2446779 -9.28332826 198.0195649 -25 199 C-26.03833984 199.07927734 -26.03833984 199.07927734 -27.09765625 199.16015625 C-46.13324628 199.9111315 -67.22080848 194.55499974 -83 184 C-84.05703125 183.33097656 -85.1140625 182.66195312 -86.203125 181.97265625 C-109.59313289 166.64721269 -124.21869916 143.54854723 -130.34375 116.3828125 C-130.5603125 115.26648438 -130.776875 114.15015625 -131 113 C-131.19078125 112.04738281 -131.3815625 111.09476562 -131.578125 110.11328125 C-133.27293978 97.6061759 -132.16065613 85.16373722 -129 73 C-128.59974609 71.38931641 -128.59974609 71.38931641 -128.19140625 69.74609375 C-121.06041092 43.91604399 -104.02697146 22.4510973 -81.08447266 8.86572266 C-56.87565452 -4.81381339 -26.55924781 -9.17283276 0 0 Z M-97 36 C-99.15819337 38.57165778 -101.09967547 41.23535341 -103 44 C-103.54785156 44.69480469 -104.09570312 45.38960937 -104.66015625 46.10546875 C-106.19247 47.88541188 -106.19247 47.88541188 -106 50 C-104.70964844 49.96519531 -103.41929688 49.93039063 -102.08984375 49.89453125 C-100.37240894 49.86637658 -98.65495993 49.83907823 -96.9375 49.8125 C-95.66616211 49.77479492 -95.66616211 49.77479492 -94.36914062 49.73632812 C-87.70496096 49.65913685 -83.13907127 50.55850012 -77.75 54.75 C-75.513917 57.62496385 -74.25202754 60.61781706 -73 64 C-72.71584229 64.74765625 -72.43168457 65.4953125 -72.13891602 66.265625 C-67.75201298 78.05747568 -63.90315304 90.05283073 -59.96484375 102 C-59.72357758 102.72960937 -59.4823114 103.45921875 -59.23373413 104.2109375 C-57.92662268 108.16785764 -56.63582506 112.12931731 -55.36376953 116.09765625 C-54.82718545 117.75261617 -54.29056542 119.40756443 -53.75390625 121.0625 C-53.50744858 121.84302734 -53.26099091 122.62355469 -53.00706482 123.42773438 C-52.39469112 125.30459462 -51.7042108 127.15563207 -51 129 C-50.01 129.495 -50.01 129.495 -49 130 C-46.43625085 123.2004914 -44.09621086 116.33469607 -41.8125 109.4375 C-40.88324041 106.64997596 -39.95290897 103.86281115 -39.02246094 101.07568359 C-38.31055296 98.93418008 -37.60321292 96.79115489 -36.89941406 94.64697266 C-35.75819326 91.176939 -34.59913051 87.71324776 -33.4375 84.25 C-33.08598877 83.16775146 -32.73447754 82.08550293 -32.37231445 80.97045898 C-30.08653769 74.21805305 -27.22457755 68.73041373 -23 63 C-22.4225 62.113125 -21.845 61.22625 -21.25 60.3125 C-12.94067634 51.77236179 -2.01361618 48.90450381 9.5625 48.625 C17.44340547 48.79336115 25.66125159 49.92900128 32 55 C37.21806298 60.70346419 38.59865175 66.33522731 39 74 C38.61404882 82.65277654 35.00494387 88.21835336 28.828125 94.05078125 C26.91590825 95.74261841 24.98169941 97.39049794 23 99 C24.7170006 100.80087707 26.02691931 102.01420741 28.25 103.1875 C31.01258333 105.00829356 32.31337149 106.60092826 34.3125 109.1875 C36.70316868 112.05670816 36.70316868 112.05670816 39.98046875 113.625 C44.77947123 113.77351845 48.81660584 112.33304674 53 110 C55.3293081 107.75503458 55.3293081 107.75503458 57 105 C57.5775 104.175 58.155 103.35 58.75 102.5 C63.35549886 89.6046032 58.44283575 72.37136409 53.015625 60.328125 C42.19289135 38.26112007 24.34419815 20.70635961 1.09301758 12.05004883 C-9.17510734 8.56412213 -19.00467568 7.47396797 -29.8125 7.5625 C-30.79854218 7.56805908 -30.79854218 7.56805908 -31.80450439 7.57373047 C-57.48382532 7.77954548 -78.86358266 17.76961158 -97 36 Z M-112.59765625 63.58984375 C-121.59432067 75.10661629 -121.41813234 94.21488391 -120 108 C-116.43790105 132.88685006 -103.71485827 154.75076166 -83.66015625 170.125 C-62.67301785 184.91769667 -39.8424339 189.89827795 -14.43701172 186.67480469 C-5.79311111 185.15625664 2.22731082 182.01667932 10 178 C10.86625 177.59394531 11.7325 177.18789062 12.625 176.76953125 C32.53160799 166.90302933 47.23182856 148.54289711 55.01953125 128.078125 C55.98347665 125.0518741 56.56259322 122.14180352 57 119 C56.43152344 119.13277344 55.86304688 119.26554687 55.27734375 119.40234375 C50.52848903 120.4884758 45.83219676 121.38312382 41 122 C41.05800781 122.87140625 41.11601562 123.7428125 41.17578125 124.640625 C41.57012105 135.05119563 39.65879184 143.34600645 33.5 151.875 C27.0855772 158.69032422 16.93303359 161.68347339 7.8515625 162.16796875 C-1.90053713 162.22700083 -8.6790914 161.10981599 -17.1171875 156.0234375 C-18.93569871 154.8408085 -18.93569871 154.8408085 -21 155 C-21 154.34 -21 153.68 -21 153 C-21.556875 152.484375 -22.11375 151.96875 -22.6875 151.4375 C-28.78625006 145.00908777 -31.12970323 137.98887166 -31.1875 129.25 C-31.20167969 128.28578125 -31.21585937 127.3215625 -31.23046875 126.328125 C-30.94197023 122.16201071 -29.90592143 118.07664642 -29 114 C-6.725 113.505 -6.725 113.505 16 113 C12.25851458 109.11159271 12.25851458 109.11159271 7.8125 107.375 C7.03648437 107.13910156 6.26046875 106.90320313 5.4609375 106.66015625 C1.66687107 105.64238288 -2.14918772 104.77380389 -6 104 C-6.495 100.535 -6.495 100.535 -7 97 C-5.741875 96.9175 -4.48375 96.835 -3.1875 96.75 C5.08986304 95.80998401 13.30226636 93.26750701 19 87 C21.88169263 82.15110022 22.45563626 77.64151123 21.578125 72.109375 C20.24816137 67.25680499 17.33581778 63.49637994 13 61 C6.46039908 59.30793543 -1.19548648 59.28242836 -7.4140625 62.08984375 C-21.80542498 72.1193454 -25.82988198 93.22315164 -30.98828125 108.92578125 C-33.07033818 115.24984194 -35.26588361 121.53034451 -37.48486328 127.80737305 C-39.7610095 134.26520001 -41.936027 140.7535122 -44.04736328 147.26708984 C-44.94996238 150.02081445 -45.83057334 152.67361286 -47.16796875 155.25 C-48.28625716 157.27912672 -48.28625716 157.27912672 -48 161 C-50.64 160.67 -53.28 160.34 -56 160 C-56.35191406 158.92105469 -56.70382813 157.84210938 -57.06640625 156.73046875 C-59.71740672 148.66089981 -62.4602884 140.64293117 -65.4375 132.6875 C-68.25406344 125.14921076 -70.8549832 117.55646538 -73.37255859 109.91357422 C-75.64476535 103.02582843 -78.01128786 96.17555361 -80.44091797 89.34179688 C-81.89933708 85.22178341 -83.30036293 81.09570539 -84.59765625 76.921875 C-84.85538818 76.10485107 -85.11312012 75.28782715 -85.37866211 74.44604492 C-85.86006969 72.90859571 -86.32928075 71.36724861 -86.78344727 69.8215332 C-88.27610357 65.08808936 -90.04738891 62.22449852 -94 59 C-100.9864049 56.85033695 -107.47842391 58.4860076 -112.59765625 63.58984375 Z M-13 126 C-15.45141815 129.86890484 -15.22412795 132.90502362 -14.66796875 137.328125 C-13.22996725 143.080131 -9.99337943 147.43377331 -5.375 151.0625 C2.63293533 153.28692648 10.62094531 152.82129618 18 149 C22.15262034 144.95665914 23.84988954 140.86749466 24.15234375 135.08984375 C24.20212355 130.53775752 24.18206493 126.40636073 23 122 C4.17016198 120.61742436 4.17016198 120.61742436 -13 126 Z " fill="#CF356B" transform="translate(155,17)"/>
<path d="M0 0 C0.66 0 1.32 0 2 0 C1.48846191 4.34807375 0.67863478 7.97127652 -1 12 C-1 12.99 -1 13.98 -1 15 C-0.62617187 14.52949219 -0.25234375 14.05898437 0.1328125 13.57421875 C5.95951883 8.66174459 17.90048145 9.61436561 25.171875 9.74609375 C28.73466485 10.06595748 31.13846973 10.83451763 34 13 C35.25 15.125 35.25 15.125 36 17 C36.66 17.33 37.32 17.66 38 18 C38.82421875 20.23828125 38.82421875 20.23828125 39.6875 23.3125 C41.70594777 30.18736345 44.03591895 36.92189238 46.44995117 43.66723633 C48.21751704 48.64122346 49.82452562 53.63164848 51.28149414 58.70581055 C52.02374181 61.07580762 52.91333035 63.33611826 53.875 65.625 C56.00492038 70.77776893 57.6383724 76.04714063 59.24951172 81.37939453 C60.11693391 84.23773708 61.01187197 87.02887231 62.1484375 89.79296875 C63 92 63 92 63 95 C65.64 94.67 68.28 94.34 71 94 C71.23364258 93.2160083 71.46728516 92.4320166 71.70800781 91.62426758 C74.14871232 83.54946378 76.86474053 75.61294005 79.75 67.6875 C82.33951414 60.54333525 84.90222712 53.40214353 87.21875 46.1640625 C87.56325195 45.09196533 87.90775391 44.01986816 88.26269531 42.9152832 C88.89917417 40.9150335 89.5244053 38.91115272 90.13574219 36.90307617 C93.22368764 27.22197306 98.33626396 18.64899006 107 13 C115.84991803 8.6522205 126.06259245 7.10613838 135.67578125 9.73046875 C140.71287401 11.80456577 146.48989403 14.97978806 149 20 C149.99 17.525 149.99 17.525 151 15 C151.66 15 152.32 15 153 15 C157.11470462 23.58720964 157.78019417 30.84649521 155 40 C153 43 153 43 151.1875 43.875 C148.7920772 44.96612599 148.7920772 44.96612599 146.625 47.375 C143.93322278 50.06677722 141.25908377 52.04454974 138 54 C137.34 54 136.68 54 136 54 C136 54.66 136 55.32 136 56 C135.34 56 134.68 56 134 56 C135.08231478 53.47459884 136.06855624 51.93352122 138.0625 50 C140.07607222 47.92147384 140.59824094 46.81231342 141 44 C141.66 44 142.32 44 143 44 C143 42.68 143 41.36 143 40 C142.34 40 141.68 40 141 40 C140.67 40.99 140.34 41.98 140 43 C138.68 43 137.36 43 136 43 C136.350625 41.865625 136.70125 40.73125 137.0625 39.5625 C138.49448656 33.79363986 138.16176585 28.54482044 135.6875 23.125 C132.53137283 19.15061763 129.97884384 17.75351668 125 17 C117.69617771 16.78490664 111.30783221 17.08393895 105.6953125 22.109375 C95.58320597 33.38647076 91.9122453 50.04385587 87.26953125 64.15820312 C85.41450057 69.7969075 83.47407174 75.40194246 81.5 81 C78.93379526 88.27916564 76.44400321 95.57932353 74.04101562 102.9140625 C72.47895294 107.65843628 70.77911748 112.33243297 69 117 C66.36 117 63.72 117 61 117 C54.34016081 101.2811249 49.25366351 84.85786033 43.70166016 68.72802734 C40.96711125 60.78729795 38.21247974 52.85415542 35.40893555 44.9375 C34.00326244 40.948824 32.65339718 36.95065188 31.37890625 32.91796875 C31.1149707 32.09192139 30.85103516 31.26587402 30.57910156 30.41479492 C30.0846073 28.85713801 29.60011143 27.29625458 29.12792969 25.73168945 C27.79566368 21.54823845 26.51355561 18.70638743 23 16 C17.84476834 14.48375539 14.07890335 15.25036448 9.11328125 16.8203125 C4.1912707 19.56790434 2.38340511 23.91409209 0.86865234 29.07568359 C-5.45664408 53.22363845 -2.49388678 77.33721244 10 99 C10.495 99.99 10.495 99.99 11 101 C8.69140625 100.78515625 8.69140625 100.78515625 6 100 C4.33984375 97.99609375 4.33984375 97.99609375 2.9375 95.4375 C2.43863281 94.54160156 1.93976562 93.64570313 1.42578125 92.72265625 C-0.43473557 89.16983372 -2.26004667 85.61374922 -4 82 C0.86406127 94.33233234 6.34869777 104.90681406 15 115 C15.639375 115.7734375 16.27875 116.546875 16.9375 117.34375 C28.88015571 131.40526398 43.87571607 139.06734833 61 145 C60.34 145.33 59.68 145.66 59 146 C59 146.66 59 147.32 59 148 C47.52905498 149.66513718 38.12037468 143.38783888 29.125 137 C24.56514741 133.52996555 20.20155543 129.89500418 16 126 C15.44054687 125.505 14.88109375 125.01 14.3046875 124.5 C-1.22842486 110.05059315 -10.02216715 89.50478124 -14 69 C-14.19078125 68.04738281 -14.3815625 67.09476562 -14.578125 66.11328125 C-16.27293978 53.6061759 -15.16065613 41.16373722 -12 29 C-11.73316406 27.92621094 -11.46632813 26.85242188 -11.19140625 25.74609375 C-8.65805099 16.56971801 -4.42953735 8.37526601 0 0 Z " fill="#CC2F66" transform="translate(38,61)"/>
<path d="M0 0 C0.66 0 1.32 0 2 0 C2 1.32 2 2.64 2 4 C1.34 4 0.68 4 0 4 C-0.04125 4.680625 -0.0825 5.36125 -0.125 6.0625 C-1.37387681 10.25515787 -4.04026731 12.8592439 -7 16 C-6.34 16 -5.68 16 -5 16 C-5 15.34 -5 14.68 -5 14 C-3.42578125 12.88671875 -3.42578125 12.88671875 -1.3125 11.6875 C2.32877991 9.51945878 5.03935494 7.04523492 8 4 C8.99 3.67 9.98 3.34 11 3 C9.49650623 6.66786393 7.36271208 8.68910393 4.375 11.25 C3.55773437 11.95640625 2.74046875 12.6628125 1.8984375 13.390625 C1.27195313 13.92171875 0.64546875 14.4528125 0 15 C0.76183594 15.52787109 0.76183594 15.52787109 1.5390625 16.06640625 C5.25693936 18.73297336 8.27468667 21.17851148 11 24.875 C13.44821621 27.87389899 13.79224976 27.96702377 17.9375 28.625 C23.28861691 28.13294327 27.55313161 25.96457893 32 23 C34.6875 22.875 34.6875 22.875 37 23 C35.61122646 26.35620271 34.08322035 28.07298728 31 30 C30.34 30 29.68 30 29 30 C28.505 31.485 28.505 31.485 28 33 C27.34 33 26.68 33 26 33 C26 33.66 26 34.32 26 35 C26.94875 34.505 27.8975 34.01 28.875 33.5 C32 32 32 32 34 32 C33.67 32.99 33.34 33.98 33 35 C31.14453125 35.9140625 31.14453125 35.9140625 28.8125 36.625 C28.05582031 36.86476562 27.29914063 37.10453125 26.51953125 37.3515625 C23.69815947 38.07768299 20.87845409 38.55844264 18 39 C18.05800781 39.79921875 18.11601562 40.5984375 18.17578125 41.421875 C18.60201483 51.79761822 16.33740383 60.04629222 10 68.375 C3.28837583 75.44064391 -6.62973208 78.660147 -16.1484375 79.16796875 C-27.9192222 79.23922047 -34.8274095 76.94647754 -45 71 C-45 70.34 -45 69.68 -45 69 C-45.99 68.67 -46.98 68.34 -48 68 C-49.7890625 65.453125 -49.7890625 65.453125 -51.625 62.25 C-52.23601562 61.20328125 -52.84703125 60.1565625 -53.4765625 59.078125 C-57.90001717 50.14047813 -56.59998664 39.32936382 -54 30 C-52.45769023 28.45769023 -50.9959029 28.83752513 -48.84741211 28.79467773 C-47.96657455 28.77473251 -47.085737 28.75478729 -46.1782074 28.73423767 C-45.22092239 28.71752518 -44.26363739 28.70081268 -43.27734375 28.68359375 C-42.30213272 28.66281265 -41.32692169 28.64203156 -40.32215881 28.62062073 C-37.1940137 28.55501588 -34.06578178 28.49618972 -30.9375 28.4375 C-28.8222565 28.39432517 -26.70702191 28.35071123 -24.59179688 28.30664062 C-19.39462413 28.19932345 -14.19736423 28.0975778 -9 28 C-10.25650159 27.35044286 -11.51555187 26.70581457 -12.77563477 26.06323242 C-13.47648697 25.70371994 -14.17733917 25.34420746 -14.89942932 24.97380066 C-17.83323824 23.61372024 -20.77571632 22.95075972 -23.9375 22.3125 C-29.91618497 21.08381503 -29.91618497 21.08381503 -31 20 C-31.04092937 17.66702567 -31.04241723 15.33294775 -31 13 C-30.01 12.75765625 -29.02 12.5153125 -28 12.265625 C-16.05299305 9.57261661 -16.05299305 9.57261661 -6 3 C-5.154375 2.835 -4.30875 2.67 -3.4375 2.5 C-2.633125 2.335 -1.82875 2.17 -1 2 C-0.67 1.34 -0.34 0.68 0 0 Z M-37 42 C-39.45141815 45.86890484 -39.22412795 48.90502362 -38.66796875 53.328125 C-37.22996725 59.080131 -33.99337943 63.43377331 -29.375 67.0625 C-21.36706467 69.28692648 -13.37905469 68.82129618 -6 65 C-1.84737966 60.95665914 -0.15011046 56.86749466 0.15234375 51.08984375 C0.20212355 46.53775752 0.18206493 42.40636073 -1 38 C-19.82983802 36.61742436 -19.82983802 36.61742436 -37 42 Z " fill="#CD3368" transform="translate(179,101)"/>
<path d="M0 0 C1.20398438 0.37382812 2.40796875 0.74765625 3.6484375 1.1328125 C18.9953762 6.15968396 38.58145265 17.27374495 48 31 C48.1328125 34.12890625 48.1328125 34.12890625 48 37 C48.96873032 38.35622245 49.96434215 39.69417053 51 41 C50.67 41.99 50.34 42.98 50 44 C49.31035156 43.154375 48.62070313 42.30875 47.91015625 41.4375 C38.90005209 30.50921969 29.02679677 20.14077834 16 14 C16 13.34 16 12.68 16 12 C14.906875 11.773125 13.81375 11.54625 12.6875 11.3125 C9.1844371 10.45660331 6.21821589 9.17891101 3 7.5625 C-16.51822832 -1.43771988 -40.12120559 0.07883004 -60.11035156 6.44873047 C-62.70699637 7.20625295 -65.32350697 7.63272099 -68 8 C-68 8.66 -68 9.32 -68 10 C-70.64 10.99 -73.28 11.98 -76 13 C-75.505 13.99 -75.505 13.99 -75 15 C-75.33 15.66 -75.66 16.32 -76 17 C-74.35 16.67 -72.7 16.34 -71 16 C-71 15.34 -71 14.68 -71 14 C-60.62642369 9.40774487 -60.62642369 9.40774487 -55 10 C-57.78053468 11.85368978 -60.08387788 12.8356066 -63.1875 14 C-74.21513002 18.5344756 -85.14998869 24.91174286 -93 34 C-93.886875 34.86625 -94.77375 35.7325 -95.6875 36.625 C-99.69003633 40.73571298 -102.88134141 45.21063146 -106 50 C-104.515 49.505 -104.515 49.505 -103 49 C-100.4020878 48.85122089 -97.84856851 48.76896765 -95.25 48.75 C-94.5590625 48.729375 -93.868125 48.70875 -93.15625 48.6875 C-86.85203808 48.64009991 -82.21953965 50.18458706 -77.25390625 54.24609375 C-74.72115364 57.34070482 -73.28324812 60.34899486 -71.9375 64.0625 C-71.51803101 65.1772168 -71.51803101 65.1772168 -71.09008789 66.31445312 C-66.47795267 78.8256989 -62.40501039 91.54398821 -58.23814392 104.20872498 C-55.51625932 112.48053768 -52.75869065 120.74040332 -50 129 C-47.35315442 122.56964748 -44.96267116 116.11169474 -42.8125 109.5 C-42.20654689 107.67160379 -41.59973317 105.84349264 -40.9921875 104.015625 C-39.95646556 100.89281382 -38.92426857 97.76897546 -37.89941406 94.64257812 C-36.75848032 91.17390532 -35.5993583 87.71171289 -34.4375 84.25 C-34.08598877 83.16783203 -33.73447754 82.08566406 -33.37231445 80.97070312 C-31.08892761 74.22483315 -28.24837321 68.70896347 -24 63 C-23.2575 61.948125 -22.515 60.89625 -21.75 59.8125 C-13.16268574 51.03001951 -2.453574 47.91512654 9.5625 47.625 C18.35470456 47.82157368 26.11004857 49.31579007 33 55 C34.5 56.875 34.5 56.875 35 59 C34.125 62.25 34.125 62.25 33 65 C32.36384766 64.41992188 32.36384766 64.41992188 31.71484375 63.828125 C23.53232699 56.56276945 16.8467493 53.60489511 5.7734375 53.73046875 C-3.33029497 54.38073536 -10.15787498 57.40714209 -16.96484375 63.4140625 C-23.45643824 71.66249926 -26.26446334 82.09049708 -29.53451538 91.91308594 C-30.94995285 96.16438354 -32.38823995 100.40794986 -33.82421875 104.65234375 C-34.10185562 105.47491669 -34.37949249 106.29748962 -34.6655426 107.14498901 C-37.2150123 114.68079887 -39.92201028 122.15086852 -42.73046875 129.59375 C-43.8917262 132.70949306 -44.97058767 135.83858204 -46 139 C-48.64 139 -51.28 139 -54 139 C-54.22139648 138.32533691 -54.44279297 137.65067383 -54.67089844 136.95556641 C-55.69397516 133.84428471 -56.72195811 130.73464445 -57.75 127.625 C-58.09804687 126.56410156 -58.44609375 125.50320312 -58.8046875 124.41015625 C-60.71895309 118.63191011 -62.78112271 112.97034039 -65.08447266 107.33691406 C-66.53263802 103.6404237 -67.6688152 99.86195681 -68.8125 96.0625 C-71.18170196 88.33035695 -73.85836926 80.75790881 -76.81567383 73.23071289 C-78.30075192 69.35624947 -79.42112034 66.22804817 -79 62 C-79.99 61.67 -80.98 61.34 -82 61 C-82.433125 60.0409375 -82.433125 60.0409375 -82.875 59.0625 C-84.43757063 56.19778718 -85.92272691 55.97289832 -89 55 C-97.49823296 54.21483717 -110.04619596 53.71106585 -117.37109375 58.57421875 C-117.90863281 59.04472656 -118.44617188 59.51523438 -119 60 C-118.58028595 56.99204933 -118.15549794 54.35673058 -116.9375 51.5625 C-115.78237163 48.94207642 -115.78237163 48.94207642 -116.21875 45.73828125 C-115.95497222 41.23050735 -114.36325189 38.95663003 -111.5625 35.625 C-111.10584961 35.06192139 -110.64919922 34.49884277 -110.17871094 33.91870117 C-84.0572103 2.19003849 -39.87981694 -13.7733905 0 0 Z " fill="#D44779" transform="translate(155,17)"/>
<path d="M0 0 C0.66 0 1.32 0 2 0 C1.48846191 4.34807375 0.67863478 7.97127652 -1 12 C-1 12.99 -1 13.98 -1 15 C-0.59910156 14.51176758 -0.19820312 14.02353516 0.21484375 13.52050781 C2.48280501 11.58877057 3.61759101 11.63760439 6.5625 11.671875 C7.88121094 11.67960937 7.88121094 11.67960937 9.2265625 11.6875 C10.14179687 11.708125 11.05703125 11.72875 12 11.75 C12.91523437 11.75515625 13.83046875 11.7603125 14.7734375 11.765625 C21.53481193 11.84493731 21.53481193 11.84493731 25 13 C25 13.66 25 14.32 25 15 C25.66 15 26.32 15 27 15 C26.67 16.32 26.34 17.64 26 19 C25.649375 18.525625 25.29875 18.05125 24.9375 17.5625 C21.98521661 15.1816263 19.77138785 15.12165767 16 15 C11.5445445 15.84150256 8.15957839 16.84474034 4.90234375 20.08984375 C-4.59448416 34.61784537 -3.8761521 56.00855667 -0.55517578 72.30981445 C1.66383938 81.97437099 5.04880188 90.41526132 10 99 C10.495 99.99 10.495 99.99 11 101 C8.69140625 100.78515625 8.69140625 100.78515625 6 100 C4.33984375 97.99609375 4.33984375 97.99609375 2.9375 95.4375 C2.43863281 94.54160156 1.93976562 93.64570313 1.42578125 92.72265625 C-0.43473557 89.16983372 -2.26004667 85.61374922 -4 82 C0.86406127 94.33233234 6.34869777 104.90681406 15 115 C15.639375 115.7734375 16.27875 116.546875 16.9375 117.34375 C28.88015571 131.40526398 43.87571607 139.06734833 61 145 C60.34 145.33 59.68 145.66 59 146 C59 146.66 59 147.32 59 148 C47.52905498 149.66513718 38.12037468 143.38783888 29.125 137 C24.56514741 133.52996555 20.20155543 129.89500418 16 126 C15.44054687 125.505 14.88109375 125.01 14.3046875 124.5 C-1.22842486 110.05059315 -10.02216715 89.50478124 -14 69 C-14.19078125 68.04738281 -14.3815625 67.09476562 -14.578125 66.11328125 C-16.27293978 53.6061759 -15.16065613 41.16373722 -12 29 C-11.73316406 27.92621094 -11.46632813 26.85242188 -11.19140625 25.74609375 C-8.65805099 16.56971801 -4.42953735 8.37526601 0 0 Z " fill="#CE3369" transform="translate(38,61)"/>
<path d="M0 0 C2.05558653 2.43742923 3.49672538 4.91218301 4.83203125 7.78515625 C5.31833008 8.82833008 5.31833008 8.82833008 5.81445312 9.89257812 C6.47927423 11.33801109 7.13297671 12.78861051 7.77539062 14.24414062 C10.11967765 19.20444932 11.92789332 20.65455449 17 23 C18.98554947 25.03729953 20.59334745 27.31725728 22.25 29.625 C35.01418327 46.4944323 53.71183144 58.44595408 74.640625 62.4921875 C94.7076598 65.24096332 113.93970529 63.33298766 132 54 C132.86625 53.59394531 133.7325 53.18789062 134.625 52.76953125 C145.56939709 47.34505537 155.78752531 38.92222562 162.47265625 28.64453125 C164.48919795 26.47326768 166.12929261 26.45566784 169 26 C171.29289472 24.04190477 171.29289472 24.04190477 173 22 C173.33 22.66 173.66 23.32 174 24 C157.55450235 47.57038628 137.29990329 62.49086711 109.18359375 68.61328125 C92.04830799 70.69474541 71.80103793 70.41961781 56 63 C54.37603603 62.41378861 52.75100294 61.83053185 51.125 61.25 C31.25191874 53.18915581 16.00500075 35.70813095 6 17.25 C5.62584961 16.56526611 5.25169922 15.88053223 4.86621094 15.17504883 C2.316601 10.25245856 0.96384147 5.45014305 0 0 Z " fill="#FDE6EE" transform="translate(33,140)"/>
<path d="M0 0 C1.20398438 0.37382812 2.40796875 0.74765625 3.6484375 1.1328125 C18.9953762 6.15968396 38.58145265 17.27374495 48 31 C48.1328125 34.12890625 48.1328125 34.12890625 48 37 C48.96873032 38.35622245 49.96434215 39.69417053 51 41 C50.67 41.99 50.34 42.98 50 44 C49.31035156 43.154375 48.62070313 42.30875 47.91015625 41.4375 C38.90005209 30.50921969 29.02679677 20.14077834 16 14 C16 13.34 16 12.68 16 12 C14.906875 11.773125 13.81375 11.54625 12.6875 11.3125 C9.1844371 10.45660331 6.21821589 9.17891101 3 7.5625 C-16.51822832 -1.43771988 -40.12120559 0.07883004 -60.11035156 6.44873047 C-62.70699637 7.20625295 -65.32350697 7.63272099 -68 8 C-68 8.66 -68 9.32 -68 10 C-69.051875 10.309375 -70.10375 10.61875 -71.1875 10.9375 C-83.27199857 15.51980545 -93.96070427 25.51070363 -102.7109375 34.8203125 C-104 36 -104 36 -106 36 C-106.75390625 33.296875 -106.75390625 33.296875 -107 30 C-95.21554471 12.13603355 -69.83430957 1.82400222 -50 -3 C-33.75088891 -6.09056088 -15.64337414 -5.40279062 0 0 Z " fill="#FDE4ED" transform="translate(155,17)"/>
<path d="M0 0 C5.42528736 3.85057471 5.42528736 3.85057471 7 7 C7.66 5.35 8.32 3.7 9 2 C9.66 2 10.32 2 11 2 C15.11470462 10.58720964 15.78019417 17.84649521 13 27 C11 30 11 30 9.1875 30.875 C6.7920772 31.96612599 6.7920772 31.96612599 4.625 34.375 C1.93322278 37.06677722 -0.74091623 39.04454974 -4 41 C-4.66 41 -5.32 41 -6 41 C-6 41.66 -6 42.32 -6 43 C-6.66 43 -7.32 43 -8 43 C-6.91768522 40.47459884 -5.93144376 38.93352122 -3.9375 37 C-1.92392778 34.92147384 -1.40175906 33.81231342 -1 31 C-0.34 31 0.32 31 1 31 C1 29.68 1 28.36 1 27 C0.34 27 -0.32 27 -1 27 C-1.33 27.99 -1.66 28.98 -2 30 C-3.32 30 -4.64 30 -6 30 C-5.649375 28.865625 -5.29875 27.73125 -4.9375 26.5625 C-3.50551344 20.79363986 -3.83823415 15.54482044 -6.3125 10.125 C-9.46862717 6.15061763 -12.02115616 4.75351668 -17 4 C-24.66006349 3.77441554 -30.51383963 4.30241959 -36.4140625 9.4296875 C-38.71540579 11.70646933 -38.71540579 11.70646933 -41 14 C-40.44271087 10.65626525 -39.64826111 7.96687001 -38 5 C-38.99 5 -39.98 5 -41 5 C-30.63663459 -5.36336541 -12.50494561 -7.96934034 0 0 Z " fill="#CD3268" transform="translate(180,74)"/>
<path d="M0 0 C0.66 0 1.32 0 2 0 C2.66 2.97 3.32 5.94 4 9 C4.66 7.02 5.32 5.04 6 3 C14.91 3 23.82 3 33 3 C33 3.66 33 4.32 33 5 C32.01257813 5.13277344 31.02515625 5.26554688 30.0078125 5.40234375 C28.72648437 5.57894531 27.44515625 5.75554687 26.125 5.9375 C24.21074219 6.19853516 24.21074219 6.19853516 22.2578125 6.46484375 C19.12440546 6.81433227 19.12440546 6.81433227 17 8 C14.90398876 15.57268577 16.36717837 23.17887921 20 30 C18.35 30 16.7 30 15 30 C16.35680268 34.44044513 18.13353058 36.45164515 22 39 C27.6556316 41.62090245 33.8644549 41.62273347 40 42 C39.34 42.99 38.68 43.98 38 45 C28.0386554 45.81650366 17.32501247 44.80814824 9 39 C9 38.34 9 37.68 9 37 C8.01 36.67 7.02 36.34 6 36 C4.2109375 33.453125 4.2109375 33.453125 2.375 30.25 C1.76398438 29.20328125 1.15296875 28.1565625 0.5234375 27.078125 C-3.04800685 19.86197591 -3.21879545 10.46070758 -1 2.75 C-0.67 1.8425 -0.34 0.935 0 0 Z " fill="#CD3368" transform="translate(125,133)"/>
<path d="M0 0 C0.99 0.33 1.98 0.66 3 1 C-3.74877459 8.28628761 -10.54138903 13.77821749 -19 19 C-20.23363281 19.81791016 -20.23363281 19.81791016 -21.4921875 20.65234375 C-34.82614069 29.24290703 -51.28288293 33.01953712 -67 34 C-67.69222656 34.05285156 -68.38445312 34.10570312 -69.09765625 34.16015625 C-81.23087964 34.63882544 -94.62082892 32.12458386 -106 28 C-106 27.67 -106 27.34 -106 27 C-104.02 27 -102.04 27 -100 27 C-100 26.34 -100 25.68 -100 25 C-97.77090129 24.97285265 -95.54170633 24.95353746 -93.3125 24.9375 C-92.07113281 24.92589844 -90.82976562 24.91429687 -89.55078125 24.90234375 C-86 25 -86 25 -83.58569336 25.49121094 C-66.78171986 28.79774297 -47.10395566 26.02727713 -32 18 C-30.46085937 17.2265625 -30.46085937 17.2265625 -28.890625 16.4375 C-22.67336972 13.22859405 -17.1191253 9.84755096 -11.8046875 5.28515625 C-10 4 -10 4 -7 4 C-10.465 7.465 -10.465 7.465 -14 11 C-9.39294801 9.50948318 -6.53603516 7.21457741 -3 4 C-2.67 3.34 -2.34 2.68 -2 2 C-1.34 2 -0.68 2 0 2 C0 1.34 0 0.68 0 0 Z " fill="#D34878" transform="translate(197,182)"/>
<path d="M0 0 C3.50887956 2.73609061 4.57108672 6.57965697 6 10.625 C6.29124756 11.43187256 6.58249512 12.23874512 6.88256836 13.07006836 C11.39032482 25.70811141 15.54221523 38.47430998 19.74902344 51.21484375 C21.38576052 56.16721917 23.03532983 61.11525688 24.6875 66.0625 C25.14983128 67.44918818 25.61208361 68.83590269 26.07421875 70.22265625 C26.37972656 71.13917969 26.68523437 72.05570312 27 73 C29.64681819 66.56971403 32.0381353 60.1119236 34.1875 53.5 C34.79060335 51.6741276 35.39482635 49.84862476 36 48.0234375 C36.3196875 47.05889648 36.639375 46.09435547 36.96875 45.10058594 C38.85326216 39.43455742 40.76091241 33.7768549 42.6875 28.125 C43.05576904 27.02607422 43.42403809 25.92714844 43.8034668 24.79492188 C45.74144643 19.13778592 47.8055945 14.06201504 51 9 C51.66 9.33 52.32 9.66 53 10 C52.50220639 15.6748472 51.35033479 19.75694546 49 25 C48.52451101 26.51699572 48.07183733 28.04124821 47.63671875 29.5703125 C46.04568328 34.97057831 44.14960393 40.2252716 42.1875 45.5 C39.25182403 53.46913847 36.44887404 61.46700947 33.81518555 69.54101562 C32.08911707 74.82176587 32.08911707 74.82176587 31 77 C30.236875 76.814375 29.47375 76.62875 28.6875 76.4375 C25.91032625 75.77180827 25.91032625 75.77180827 23 77 C18.93792254 65.14479083 14.8868895 53.28586417 10.84765625 41.42285156 C9.68630937 38.01241104 8.52251092 34.60283158 7.35546875 31.19433594 C6.15477659 27.68666442 4.96128542 24.17663594 3.77410889 20.66436768 C3.13656647 18.78411211 2.49144708 16.90643115 1.84619141 15.02880859 C1.46640137 13.90039551 1.08661133 12.77198242 0.6953125 11.609375 C0.36547363 10.63967773 0.03563477 9.66998047 -0.30419922 8.67089844 C-1.00652635 5.97494797 -1.21111566 3.77204034 -1 1 C-0.67 0.67 -0.34 0.34 0 0 Z " fill="#CC2F65" transform="translate(78,73)"/>
<path d="M0 0 C-0.66 1.65 -1.32 3.3 -2 5 C-2.57105469 4.81824219 -3.14210938 4.63648438 -3.73046875 4.44921875 C-15.89686444 0.67744266 -27.02402836 -1.49180059 -39.8125 -1.3125 C-41.12895508 -1.3019458 -42.44541016 -1.2913916 -43.80175781 -1.28051758 C-56.59547973 -1.10585656 -68.85392567 -0.37959411 -81 4 C-81 4.66 -81 5.32 -81 6 C-82.65 6.33 -84.3 6.66 -86 7 C-86.33 5.68 -86.66 4.36 -87 3 C-83.55930376 0.70620251 -82.27709699 0 -78 0 C-78 -0.66 -78 -1.32 -78 -2 C-74.77198351 -2.98298598 -71.54239567 -3.96070802 -68.3125 -4.9375 C-66.94448242 -5.35418945 -66.94448242 -5.35418945 -65.54882812 -5.77929688 C-64.66259766 -6.04677734 -63.77636719 -6.31425781 -62.86328125 -6.58984375 C-62.05157471 -6.83597412 -61.23986816 -7.08210449 -60.40356445 -7.33569336 C-41.80596371 -12.47577174 -16.55615854 -10.3848398 0 0 Z " fill="#D14475" transform="translate(165,27)"/>
<path d="M0 0 C3.81386861 3.14644161 3.81386861 3.14644161 4.5 6.0625 C3.625 9.3125 3.625 9.3125 2.5 12.0625 C1.86384766 11.48242188 1.86384766 11.48242188 1.21484375 10.890625 C-6.96767301 3.62526945 -13.6532507 0.66739511 -24.7265625 0.79296875 C-33.89126506 1.44759036 -40.97234781 4.43909852 -47.5859375 10.82421875 C-50.5224645 14.25815747 -52.61518659 17.97084475 -54.5 22.0625 C-56.78424153 13.3974846 -56.78424153 13.3974846 -54.51171875 9.265625 C-42.28972102 -6.2959045 -16.72143258 -10.14513775 0 0 Z " fill="#FDEAF0" transform="translate(185.5,69.9375)"/>
<path d="M0 0 C0.33 0 0.66 0 1 0 C1.27972656 0.98355469 1.55945313 1.96710938 1.84765625 2.98046875 C4.89789769 13.5906263 8.29542173 24.05763201 11.82519531 34.51660156 C14.09382604 41.24328968 16.35282296 47.97318407 18.60568237 54.70516968 C19.43073372 57.16730791 20.25939555 59.62821239 21.08813477 62.08911133 C21.59930698 63.61533489 22.11030129 65.14161805 22.62109375 66.66796875 C22.9815126 67.73372635 22.9815126 67.73372635 23.34921265 68.8210144 C25 73.77230834 25 73.77230834 25 76 C25.763125 75.62875 26.52625 75.2575 27.3125 74.875 C28.199375 74.58625 29.08625 74.2975 30 74 C30.99 74.66 31.98 75.32 33 76 C33.14840332 75.40098877 33.29680664 74.80197754 33.44970703 74.18481445 C35.74567996 65.33161505 38.79636468 56.79012444 41.875 48.1875 C42.39750127 46.71822901 42.9196385 45.24882851 43.44140625 43.77929688 C44.70937381 40.21118069 45.98189556 36.64471423 47.25671387 33.07904053 C48.0040729 30.98860772 48.75068327 28.89790893 49.49707031 26.80712891 C50.66420079 23.53790265 51.83191486 20.2688853 53 17 C53.66 17.66 54.32 18.32 55 19 C41.54423332 58.6206006 41.54423332 58.6206006 36.26953125 72.59375 C35.1082738 75.70949306 34.02941233 78.83858204 33 82 C30.36 82 27.72 82 25 82 C24.77860352 81.32533691 24.55720703 80.65067383 24.32910156 79.95556641 C23.30602484 76.84428471 22.27804189 73.73464445 21.25 70.625 C20.90195313 69.56410156 20.55390625 68.50320312 20.1953125 67.41015625 C18.28104691 61.63191011 16.21887729 55.97034039 13.91552734 50.33691406 C12.46736198 46.6404237 11.3311848 42.86195681 10.1875 39.0625 C7.81829804 31.33035695 5.14163074 23.75790881 2.18432617 16.23071289 C0.69924808 12.35624947 -0.42112034 9.22804817 0 5 C-0.99 4.67 -1.98 4.34 -3 4 C-2.67 3.34 -2.34 2.68 -2 2 C-1.67 2.33 -1.34 2.66 -1 3 C-0.67 2.01 -0.34 1.02 0 0 Z " fill="#E54F8A" transform="translate(76,74)"/>
<path d="M0 0 C0.66 0 1.32 0 2 0 C0.49650623 3.66786393 -1.63728792 5.68910393 -4.625 8.25 C-5.44226563 8.95640625 -6.25953125 9.6628125 -7.1015625 10.390625 C-8.04128906 11.18726562 -8.04128906 11.18726562 -9 12 C-8.49210938 12.35191406 -7.98421875 12.70382813 -7.4609375 13.06640625 C-3.74306064 15.73297336 -0.72531333 18.17851148 2 21.875 C4.44821621 24.87389899 4.79224976 24.96702377 8.9375 25.625 C14.28861691 25.13294327 18.55313161 22.96457893 23 20 C25.6875 19.875 25.6875 19.875 28 20 C26.61122646 23.35620271 25.08322035 25.07298728 22 27 C21.34 27 20.68 27 20 27 C19.505 28.485 19.505 28.485 19 30 C18.34 30 17.68 30 17 30 C17 30.66 17 31.32 17 32 C17.94875 31.505 18.8975 31.01 19.875 30.5 C23 29 23 29 25 29 C24 32 24 32 22.1796875 32.94921875 C17.24482262 34.53004835 13.18102823 35.33070393 8 35 C10 34 12 33 14 32 C13.2265625 32.03222656 12.453125 32.06445312 11.65625 32.09765625 C3.23702401 32.00387774 3.23702401 32.00387774 -0.5078125 28.96484375 C-2.4462194 26.70813756 -4.21617504 24.37843329 -6 22 C-6.66 21.67 -7.32 21.34 -8 21 C-8 20.34 -8 19.68 -8 19 C-8.94875 18.855625 -9.8975 18.71125 -10.875 18.5625 C-14 18 -14 18 -16 17 C-16 16.01 -16 15.02 -16 14 C-15.01 14 -14.02 14 -13 14 C-12.95875 13.4225 -12.9175 12.845 -12.875 12.25 C-11.56159373 8.87266958 -9.01350808 7.91241859 -6 6 C-4.2958946 4.37163262 -2.61974559 2.71230248 -1 1 C-0.67 0.67 -0.34 0.34 0 0 Z " fill="#FDDCE7" transform="translate(188,104)"/>
<path d="M0 0 C5.37931034 -0.48902821 5.37931034 -0.48902821 8.0625 1.625 C8.701875 2.40875 9.34125 3.1925 10 4 C10.44730469 4.52851563 10.89460938 5.05703125 11.35546875 5.6015625 C12.58522447 7.05522333 13.79427984 8.52634202 15 10 C13.42117983 11.57882017 11.82632247 11.1350878 9.63549805 11.14526367 C8.707509 11.15164352 7.77951996 11.15802338 6.82341003 11.16459656 C5.81305191 11.16570938 4.80269379 11.1668222 3.76171875 11.16796875 C2.72940628 11.17129715 1.69709381 11.17462555 0.63349915 11.17805481 C-1.55642245 11.1831295 -3.74635182 11.18546297 -5.9362793 11.18530273 C-9.28772778 11.18748388 -12.63884444 11.20561923 -15.99023438 11.22460938 C-18.1145822 11.22754424 -20.2389316 11.22952841 -22.36328125 11.23046875 C-23.8697094 11.24124702 -23.8697094 11.24124702 -25.40657043 11.25224304 C-26.81273872 11.2476281 -26.81273872 11.2476281 -28.24731445 11.24291992 C-29.07036575 11.24434494 -29.89341705 11.24576996 -30.7414093 11.24723816 C-33.22123976 10.97578184 -34.85394785 10.24105866 -37 9 C-36.67 8.01 -36.34 7.02 -36 6 C-21.48 5.67 -6.96 5.34 8 5 C5.36 3.68 2.72 2.36 0 1 C0 0.67 0 0.34 0 0 Z " fill="#FEF3F6" transform="translate(162,124)"/>
<path d="M0 0 C4.02809327 0.98647182 6.69478581 1.79652387 10.1875 4.125 C16.23250243 7.77378525 24.1618168 6.61486551 30.75 5 C31.8225 4.67 32.895 4.34 34 4 C34 3.34 34 2.68 34 2 C36.31 2 38.62 2 41 2 C40.06562736 5.14624911 39.48111907 6.67320214 36.72265625 8.546875 C35.40587891 9.14242187 35.40587891 9.14242187 34.0625 9.75 C33.18722656 10.15734375 32.31195313 10.5646875 31.41015625 10.984375 C24.59876683 13.85465255 16.73019526 14.17762926 9.625 11.9375 C5.41259756 10.0956755 2.35214538 6.9202423 0 3 C0 2.01 0 1.02 0 0 Z " fill="#FCE6ED" transform="translate(139,162)"/>
<path d="M0 0 C2.05558653 2.43742923 3.49672538 4.91218301 4.83203125 7.78515625 C5.31833008 8.82833008 5.31833008 8.82833008 5.81445312 9.89257812 C6.47927423 11.33801109 7.13297671 12.78861051 7.77539062 14.24414062 C10.12202575 19.2094177 11.92810678 20.64679543 17 23 C19.11209181 25.11637235 20.85501263 27.47001717 22.625 29.875 C23.55463527 31.10160209 24.48432188 32.32816527 25.4140625 33.5546875 C25.85008789 34.14217773 26.28611328 34.72966797 26.73535156 35.33496094 C27.8851933 36.84884523 29.10723391 38.30720257 30.3359375 39.7578125 C32 42 32 42 32 45 C33.43750191 46.68798827 33.43750191 46.68798827 35 48 C34.34 48.66 33.68 49.32 33 50 C21.80246603 40.39936521 13.04666908 30.26121713 6 17.25 C5.62593018 16.56534668 5.25186035 15.88069336 4.86645508 15.17529297 C2.31656 10.25270191 0.96386093 5.45025311 0 0 Z " fill="#FCBAD2" transform="translate(33,140)"/>
<path d="M0 0 C0.99 0.33 1.98 0.66 3 1 C-3.74626707 8.28358037 -10.53804482 13.78833224 -19 19 C-19.88042969 19.56847656 -20.76085937 20.13695312 -21.66796875 20.72265625 C-26.76514847 23.93901617 -32.00029567 26.90802927 -38 28 C-38.99 27.67 -39.98 27.34 -41 27 C-39.95199219 26.51080078 -39.95199219 26.51080078 -38.8828125 26.01171875 C-37.51769531 25.35623047 -37.51769531 25.35623047 -36.125 24.6875 C-35.22007812 24.25824219 -34.31515625 23.82898438 -33.3828125 23.38671875 C-30.73550524 22.0800612 -30.73550524 22.0800612 -29 19 C-29.33 18.34 -29.66 17.68 -30 17 C-28.96552734 16.47212891 -28.96552734 16.47212891 -27.91015625 15.93359375 C-22.06585665 12.86313182 -16.91059262 9.59686359 -11.875 5.3203125 C-10 4 -10 4 -7 4 C-9.31 6.31 -11.62 8.62 -14 11 C-9.39294801 9.50948318 -6.53603516 7.21457741 -3 4 C-2.67 3.34 -2.34 2.68 -2 2 C-1.34 2 -0.68 2 0 2 C0 1.34 0 0.68 0 0 Z " fill="#D44B7B" transform="translate(197,182)"/>
<path d="M0 0 C0.67232666 -0.01377686 1.34465332 -0.02755371 2.03735352 -0.04174805 C8.3733092 0.01632316 12.70516094 1.88677396 17.9375 5.375 C17.9375 6.365 17.9375 7.355 17.9375 8.375 C17.2775 8.375 16.6175 8.375 15.9375 8.375 C15.6075 9.695 15.2775 11.015 14.9375 12.375 C14.07125 11.59125 13.205 10.8075 12.3125 10 C5.40871523 4.34562408 -2.26681912 4.88228361 -10.7734375 5.60546875 C-12.87302892 5.83397318 -14.96844258 6.10036952 -17.0625 6.375 C-16.0625 3.375 -16.0625 3.375 -13 1.6875 C-8.72834283 0.22492173 -4.4773045 0.05101314 0 0 Z " fill="#FEEDF2" transform="translate(60.0625,65.625)"/>
<path d="M0 0 C0.99 0.495 0.99 0.495 2 1 C3.42843989 1.11258952 4.86174684 1.16652748 6.29443359 1.18945312 C7.1823056 1.20617065 8.07017761 1.22288818 8.98495483 1.2401123 C10.42712875 1.26047546 10.42712875 1.26047546 11.8984375 1.28125 C12.88494293 1.29965942 13.87144836 1.31806885 14.8878479 1.33703613 C18.05017016 1.39590143 21.21254727 1.44865213 24.375 1.5 C28.5287598 1.56766935 32.68234822 1.64138889 36.8359375 1.71875 C38.27203873 1.73911316 38.27203873 1.73911316 39.7371521 1.7598877 C40.63132843 1.77660522 41.52550476 1.79332275 42.44677734 1.81054688 C43.62353531 1.82933899 43.62353531 1.82933899 44.82406616 1.84851074 C46.99073838 1.9993552 48.91484065 2.40662488 51 3 C51 3.99 51 4.98 51 6 C49.69180298 6.06731323 49.69180298 6.06731323 48.35717773 6.13598633 C45.09309566 6.31017772 41.83010361 6.49607078 38.56713867 6.68969727 C37.16017164 6.77082812 35.75293415 6.84741134 34.34545898 6.91918945 C32.3114392 7.0237385 30.27898376 7.14511382 28.24609375 7.26953125 C27.02591553 7.33760986 25.8057373 7.40568848 24.54858398 7.47583008 C20.52424874 8.07027437 17.65418754 9.25590937 14 11 C14.33 9.68 14.66 8.36 15 7 C20.48675196 5.13216954 25.22192976 4.7641604 31 5 C31 4.34 31 3.68 31 3 C22.09 3 13.18 3 4 3 C3.67 4.98 3.34 6.96 3 9 C2.01 9.495 2.01 9.495 1 10 C0.67 6.7 0.34 3.4 0 0 Z " fill="#CD3A6C" transform="translate(127,133)"/>
<path d="M0 0 C1.3303125 0.12375 1.3303125 0.12375 2.6875 0.25 C1.29872646 3.60620271 -0.22927965 5.32298728 -3.3125 7.25 C-3.9725 7.25 -4.6325 7.25 -5.3125 7.25 C-5.6425 8.24 -5.9725 9.23 -6.3125 10.25 C-6.9725 10.25 -7.6325 10.25 -8.3125 10.25 C-8.3125 10.91 -8.3125 11.57 -8.3125 12.25 C-6.889375 11.5075 -6.889375 11.5075 -5.4375 10.75 C-2.3125 9.25 -2.3125 9.25 -0.3125 9.25 C-1.3125 12.25 -1.3125 12.25 -3.1328125 13.19921875 C-8.06767738 14.78004835 -12.13147177 15.58070393 -17.3125 15.25 C-15.3125 14.25 -13.3125 13.25 -11.3125 12.25 C-15.2725 11.92 -19.2325 11.59 -23.3125 11.25 C-22.3125 7.25 -22.3125 7.25 -21.3125 6.25 C-18.08384311 5.78941477 -14.84957687 5.41317281 -11.609375 5.04296875 C-6.89033452 3.90793887 -4.80691497 0.36278604 0 0 Z " fill="#FDECF2" transform="translate(213.3125,123.75)"/>
<path d="M0 0 C1.4540625 0.0309375 1.4540625 0.0309375 2.9375 0.0625 C2.57643672 2.75882737 2.1943261 3.83708825 0.1171875 5.66015625 C-7.37032886 10.41917089 -13.92255641 14.36337922 -23.0625 13.0625 C-25.33203125 12.04296875 -25.33203125 12.04296875 -27.0625 11.0625 C-27.0625 10.4025 -27.0625 9.7425 -27.0625 9.0625 C-26.0725 8.82015625 -25.0825 8.5778125 -24.0625 8.328125 C-16.60015679 6.45167904 -6.83602501 0.13951071 0 0 Z " fill="#FCE4EC" transform="translate(175.0625,104.9375)"/>
<path d="M0 0 C0.99088623 0.00652588 1.98177246 0.01305176 3.00268555 0.01977539 C11.61095653 0.17492325 21.97491559 0.4562078 29.8125 4.375 C29.8125 5.035 29.8125 5.695 29.8125 6.375 C32.2875 6.87 32.2875 6.87 34.8125 7.375 C30.90581269 8.6772291 29.40488655 7.70498776 25.5 6.4375 C17.22299655 4.06222965 8.99717312 4.0070355 0.4375 4.0625 C-0.84552002 4.06967041 -2.12854004 4.07684082 -3.45043945 4.08422852 C-10.41127951 4.18139015 -17.27756714 4.51705532 -24.1875 5.375 C-18.39081905 -0.42168095 -7.70506308 -0.1114573 0 0 Z " fill="#EDB1C5" transform="translate(124.1875,21.625)"/>
<path d="M0 0 C-1.65 0.66 -3.3 1.32 -5 2 C-4.26394531 2.04898438 -3.52789062 2.09796875 -2.76953125 2.1484375 C-1.30580078 2.26058594 -1.30580078 2.26058594 0.1875 2.375 C1.15042969 2.44460937 2.11335938 2.51421875 3.10546875 2.5859375 C6.01508938 3.00215853 8.32890774 3.79874096 11 5 C11 5.33 11 5.66 11 6 C10.2265625 5.97679688 9.453125 5.95359375 8.65625 5.9296875 C-0.68593983 5.76781787 -7.45913333 5.9619845 -14.5546875 12.5625 C-15.7049282 13.70652318 -16.85286384 14.85286384 -18 16 C-17.44271087 12.65626525 -16.64826111 9.96687001 -15 7 C-15.99 7 -16.98 7 -18 7 C-12.93891603 2.31849732 -7.15440988 -2.32120854 0 0 Z " fill="#D34878" transform="translate(157,72)"/>
<path d="M0 0 C0.99 0.99 1.98 1.98 3 3 C2.67 3.66 2.34 4.32 2 5 C2.66 5.33 3.32 5.66 4 6 C3.175 7.010625 2.35 8.02125 1.5 9.0625 C-3.15149143 15.21626737 -6.48986266 22.15790488 -10 29 C-11.2609078 25.16717429 -10.41165355 23.44912119 -8.671875 19.83984375 C-7.78209345 17.8137999 -7.78209345 17.8137999 -8.3125 14.75 C-7.80533734 8.66404811 -3.75577523 4.63603504 0 0 Z " fill="#F47FAD" transform="translate(47,48)"/>
<path d="M0 0 C0.66 0.66 1.32 1.32 2 2 C0.22325117 7.2108496 -1.55496639 12.42119494 -3.33447266 17.63110352 C-3.93805433 19.39887351 -4.54125335 21.16677422 -5.14404297 22.93481445 C-11.56649641 41.77081595 -11.56649641 41.77081595 -15 51 C-15.66 50.67 -16.32 50.34 -17 50 C-14.976158 42.05115895 -12.45567769 34.38264416 -9.625 26.6875 C-8.82670778 24.49483358 -8.02853003 22.30212549 -7.23046875 20.109375 C-6.84810059 19.06330078 -6.46573242 18.01722656 -6.07177734 16.93945312 C-4.67610155 13.11167715 -3.30296576 9.27613603 -1.9375 5.4375 C-1.55464844 4.36371094 -1.17179687 3.28992188 -0.77734375 2.18359375 C-0.52082031 1.46300781 -0.26429688 0.74242188 0 0 Z " fill="#DE4880" transform="translate(129,91)"/>
<path d="M0 0 C0.66 0 1.32 0 2 0 C3.55078125 1.64453125 3.55078125 1.64453125 5.3125 3.8125 C7.99271697 6.97649058 10.33034424 9.01640229 14 11 C14.5775 11.598125 15.155 12.19625 15.75 12.8125 C18.60504204 15.58823532 21.79978814 17.53341649 25.171875 19.6328125 C25.77515625 20.08398438 26.3784375 20.53515625 27 21 C27 21.66 27 22.32 27 23 C27.85851562 23.26554687 28.71703125 23.53109375 29.6015625 23.8046875 C33.02910808 25.01023801 36.14173798 26.47244386 39.375 28.125 C40.43460938 28.66382813 41.49421875 29.20265625 42.5859375 29.7578125 C43.38257813 30.16773438 44.17921875 30.57765625 45 31 C42.07257706 32.25871994 40.97642839 31.99114188 37.93359375 30.84765625 C25.83126989 24.6680339 4.57147763 13.71443289 0 0 Z " fill="#EBA8C0" transform="translate(46,177)"/>
<path d="M0 0 C2.05558653 2.43742923 3.49672538 4.91218301 4.83203125 7.78515625 C5.31833008 8.82833008 5.31833008 8.82833008 5.81445312 9.89257812 C6.47927423 11.33801109 7.13297671 12.78861051 7.77539062 14.24414062 C10.06336718 19.08530123 11.86597478 20.93666375 17 23 C21 27.21052632 21 27.21052632 21 31 C18.03125677 31.18175979 16.65810897 31.19926401 14 30 C7.10551868 22.16941453 1.32891095 10.33769099 0 0 Z " fill="#EE74A3" transform="translate(33,140)"/>
<path d="M0 0 C-2.78053468 1.85368978 -5.08387788 2.8356066 -8.1875 4 C-16.38577344 7.32960553 -23.61562832 12.17391952 -31 17 C-31 12.27030291 -28.26305054 8.68406739 -25.5 5 C-24 4 -24 4 -21.8125 4.3125 C-21.214375 4.539375 -20.61625 4.76625 -20 5 C-20.33 5.66 -20.66 6.32 -21 7 C-19.35 6.67 -17.7 6.34 -16 6 C-16 5.34 -16 4.68 -16 4 C-5.62642369 -0.59225513 -5.62642369 -0.59225513 0 0 Z " fill="#D8618A" transform="translate(100,27)"/>
<path d="M0 0 C6.85714286 6.66666667 6.85714286 6.66666667 9 10 C8.979375 11.03125 8.95875 12.0625 8.9375 13.125 C9.01563472 17.96935275 10.72094083 20.9719948 12.8203125 25.265625 C14.39711707 28.92047003 14.77625246 32.04712672 15 36 C12.21454269 33.21454269 11.0713845 29.82519129 9.5625 26.25 C7.5056428 21.41970309 5.351777 16.69655467 3 12 C2.65772583 10.66893378 2.32248257 9.33599921 2 8 C1.34 7.01 0.68 6.02 0 5 C-0.125 2.3125 -0.125 2.3125 0 0 Z " fill="#EE669B" transform="translate(202,49)"/>
<path d="M0 0 C0.33 0.66 0.66 1.32 1 2 C-3.43716385 8.22779596 -7.91788125 14.2826164 -13 20 C-13.33 19.01 -13.66 18.02 -14 17 C-14.99 16.34 -15.98 15.68 -17 15 C-15.78732619 13.341977 -14.55416381 11.69892569 -13.3125 10.0625 C-12.62800781 9.14597656 -11.94351563 8.22945312 -11.23828125 7.28515625 C-8.70989046 4.70381487 -7.4872146 4.45884403 -4 4 C-1.70710528 2.04190477 -1.70710528 2.04190477 0 0 Z " fill="#FAB9D1" transform="translate(206,162)"/>
<path d="M0 0 C5.53959651 -0.34622478 9.88876714 -0.05016384 14.98046875 2.24609375 C19.90153669 4.08316553 24.95301655 4.1198589 30.1484375 4.09765625 C30.80582916 4.0962413 31.46322083 4.09482635 32.14053345 4.09336853 C34.21873731 4.08781762 36.29682927 4.07527465 38.375 4.0625 C39.79296718 4.05747864 41.21093607 4.05291685 42.62890625 4.04882812 C46.08597322 4.03786437 49.54297567 4.02063421 53 4 C53 4.33 53 4.66 53 5 C34.88268744 7.92383142 17.44661441 7.3238371 0 1 C0 0.67 0 0.34 0 0 Z " fill="#EFBCCE" transform="translate(91,209)"/>
<path d="M0 0 C2.95183101 2.95183101 3.08663988 5.95511947 4 10 C4.763125 9.62875 5.52625 9.2575 6.3125 8.875 C7.199375 8.58625 8.08625 8.2975 9 8 C9.99 8.66 10.98 9.32 12 10 C12.99 7.03 13.98 4.06 15 1 C16.20186843 4.6056053 15.66097664 6.02284268 14.625 9.625 C14.34914063 10.60726562 14.07328125 11.58953125 13.7890625 12.6015625 C13 15 13 15 12 16 C9.32941149 16.14115161 6.67567762 16.04247107 4 16 C3.32586789 14.08594633 2.6609668 12.16863974 2 10.25 C1.62875 9.18265625 1.2575 8.1153125 0.875 7.015625 C0 4 0 4 0 0 Z " fill="#E75A91" transform="translate(97,140)"/>
<path d="M0 0 C5.25415847 0.64075103 7.47680077 3.00245368 11.1328125 6.6015625 C11.74898437 7.06304687 12.36515625 7.52453125 13 8 C13.99 7.67 14.98 7.34 16 7 C18 10 18 10 17.9375 12.4375 C18.01453647 15.59599509 19.12587642 16.55549098 21 19 C20.67 19.99 20.34 20.98 20 22 C19.31035156 21.154375 18.62070313 20.30875 17.91015625 19.4375 C12.81689085 13.2655001 7.7533265 7.53517235 1.58203125 2.390625 C0.79892578 1.70226563 0.79892578 1.70226563 0 1 C0 0.67 0 0.34 0 0 Z " fill="#FDB7D1" transform="translate(185,39)"/>
<path d="M0 0 C-0.33 1.32 -0.66 2.64 -1 4 C0.32 4.33 1.64 4.66 3 5 C-8.96727206 12.72001475 -8.96727206 12.72001475 -16 14 C-16.99 13.67 -17.98 13.34 -19 13 C-18.30132812 12.67386719 -17.60265625 12.34773437 -16.8828125 12.01171875 C-15.51769531 11.35623047 -15.51769531 11.35623047 -14.125 10.6875 C-13.22007812 10.25824219 -12.31515625 9.82898438 -11.3828125 9.38671875 C-8.73550524 8.0800612 -8.73550524 8.0800612 -7 5 C-7.33 4.34 -7.66 3.68 -8 3 C-2.25 0 -2.25 0 0 0 Z " fill="#E182A3" transform="translate(175,196)"/>
<path d="M0 0 C0.91330078 0.00451172 1.82660156 0.00902344 2.76757812 0.01367188 C4.99095738 0.0253126 7.21419121 0.04166149 9.4375 0.0625 C9.4375 0.7225 9.4375 1.3825 9.4375 2.0625 C8.12930298 2.12981323 8.12930298 2.12981323 6.79467773 2.19848633 C3.53059566 2.37267772 0.26760361 2.55857078 -2.99536133 2.75219727 C-4.40232836 2.83332812 -5.80956585 2.90991134 -7.21704102 2.98168945 C-9.2510608 3.0862385 -11.28351624 3.20761382 -13.31640625 3.33203125 C-14.53658447 3.40010986 -15.7567627 3.46818848 -17.01391602 3.53833008 C-21.03825126 4.13277437 -23.90831246 5.31840937 -27.5625 7.0625 C-27.2325 5.7425 -26.9025 4.4225 -26.5625 3.0625 C-17.76835363 0.25585754 -9.18559421 -0.08761022 0 0 Z " fill="#DF81A2" transform="translate(168.5625,136.9375)"/>
<path d="M0 0 C-3.37607126 3.6739599 -6.39120786 6.05406554 -11 8 C-11.66 8 -12.32 8 -13 8 C-13 8.66 -13 9.32 -13 10 C-19.96428571 12.27678571 -19.96428571 12.27678571 -24 11 C-22.3767313 10.3291288 -20.75132422 9.66342971 -19.125 9 C-18.22007812 8.62875 -17.31515625 8.2575 -16.3828125 7.875 C-14 7 -14 7 -12 7 C-12.33 5.68 -12.66 4.36 -13 3 C-11.5903653 2.29819469 -10.17192359 1.61406042 -8.75 0.9375 C-7.96109375 0.55464844 -7.1721875 0.17179688 -6.359375 -0.22265625 C-3.74006478 -1.08564091 -2.55144824 -0.93045933 0 0 Z " fill="#D9638C" transform="translate(169,201)"/>
<path d="M0 0 C0.66 0 1.32 0 2 0 C2 1.32 2 2.64 2 4 C1.34 4 0.68 4 0 4 C-0.04125 4.680625 -0.0825 5.36125 -0.125 6.0625 C-1.37387681 10.25515787 -4.04026731 12.8592439 -7 16 C-6.34 16 -5.68 16 -5 16 C-5 15.34 -5 14.68 -5 14 C-4.34 14.33 -3.68 14.66 -3 15 C-3.33 15.66 -3.66 16.32 -4 17 C-4.99 17 -5.98 17 -7 17 C-7 17.99 -7 18.98 -7 20 C-6.34 20.33 -5.68 20.66 -5 21 C-6.32 20.67 -7.64 20.34 -9 20 C-9 18.35 -9 16.7 -9 15 C-11.31 15.33 -13.62 15.66 -16 16 C-13.78524789 13.78524789 -11.90534474 12.96907612 -9.0625 11.6875 C-5.04498721 9.73961501 -2.72299434 8.30748586 -1 4 C-2.65 4 -4.3 4 -6 4 C-6 3.67 -6 3.34 -6 3 C-5.195625 2.87625 -4.39125 2.7525 -3.5625 2.625 C-2.716875 2.41875 -1.87125 2.2125 -1 2 C-0.67 1.34 -0.34 0.68 0 0 Z " fill="#DE5588" transform="translate(179,101)"/>
<path d="M0 0 C0.53625 0.226875 1.0725 0.45375 1.625 0.6875 C0.25429219 1.34239373 -1.12183444 1.98594963 -2.5 2.625 C-3.64855469 3.16447266 -3.64855469 3.16447266 -4.8203125 3.71484375 C-13.9062437 7.17416618 -25.25072888 6.78630906 -34.375 3.6875 C-35.035 3.0275 -35.695 2.3675 -36.375 1.6875 C-35.77816406 1.7596875 -35.18132812 1.831875 -34.56640625 1.90625 C-28.56883375 2.54789223 -22.59036393 2.84861466 -16.5625 2.9375 C-15.84586182 2.95876953 -15.12922363 2.98003906 -14.39086914 3.00195312 C-9.1308182 3.03623252 -4.74436612 -0.6242587 0 0 Z " fill="#EEB6C9" transform="translate(179.375,174.3125)"/>
<path d="M0 0 C0 0.66 0 1.32 0 2 C0.66 2 1.32 2 2 2 C1.67 3.32 1.34 4.64 1 6 C0.649375 5.525625 0.29875 5.05125 -0.0625 4.5625 C-3.01478339 2.1816263 -5.22861215 2.12165767 -9 2 C-14.33058324 3.08769068 -18.5300823 4.62488637 -22 9 C-22 5 -22 5 -20.3828125 3.296875 C-13.65709994 -1.31105264 -7.85748796 -2.61916265 0 0 Z " fill="#E89CB6" transform="translate(63,74)"/>
<path d="M0 0 C4.7114682 1.08726189 8.1810022 1.88896154 11 6 C10.75 8.75 10.75 8.75 10 11 C4.97789159 9.56511188 2.95285069 7.13399097 0 3 C0 2.01 0 1.02 0 0 Z " fill="#FBCDDD" transform="translate(139,162)"/>
<path d="M0 0 C0.81210938 0.24556641 0.81210938 0.24556641 1.640625 0.49609375 C4.40222593 1.08590587 6.92818139 1.09609308 9.75 1.0625 C10.73484375 1.05347656 11.7196875 1.04445313 12.734375 1.03515625 C13.48203125 1.02355469 14.2296875 1.01195313 15 1 C15 1.66 15 2.32 15 3 C10.545 3.495 10.545 3.495 6 4 C8.64 4.99 11.28 5.98 14 7 C10.17485594 7.95628602 8.94486676 8.00157115 5.3125 7.125 C4.52488281 6.94195312 3.73726562 6.75890625 2.92578125 6.5703125 C1 6 1 6 0 5 C-0.04063832 3.33382885 -0.042721 1.66611905 0 0 Z " fill="#DE7298" transform="translate(148,116)"/>
<path d="M0 0 C1 3 1 3 -0.07421875 5.62890625 C-0.60660156 6.59699219 -1.13898438 7.56507813 -1.6875 8.5625 C-2.20699219 9.53316406 -2.72648438 10.50382813 -3.26171875 11.50390625 C-5.07570807 14.10871339 -6.14820535 14.80389605 -9 16 C-9.515625 16.70125 -10.03125 17.4025 -10.5625 18.125 C-11.036875 18.74375 -11.51125 19.3625 -12 20 C-12.99 20 -13.98 20 -15 20 C-13.92598892 17.08482708 -13.22189824 15.22189824 -11 13 C-10.37609375 12.91878906 -9.7521875 12.83757812 -9.109375 12.75390625 C-5.74468692 11.55134181 -4.92143489 8.99108297 -3.25 5.9375 C-2.63640625 4.83277344 -2.0228125 3.72804687 -1.390625 2.58984375 C-0.93171875 1.73519531 -0.4728125 0.88054687 0 0 Z " fill="#EF71A2" transform="translate(213,148)"/>
<path d="M0 0 C0.99 0.99 1.98 1.98 3 3 C2 4 2 4 0.09544373 4.12025452 C-0.73728561 4.11803391 -1.57001495 4.11581329 -2.42797852 4.11352539 C-3.36887833 4.11344986 -4.30977814 4.11337433 -5.27919006 4.11329651 C-6.30209641 4.10813522 -7.32500275 4.10297394 -8.37890625 4.09765625 C-9.42070541 4.0962413 -10.46250458 4.09482635 -11.53587341 4.09336853 C-14.87811094 4.0877508 -18.22028257 4.0751953 -21.5625 4.0625 C-23.82226466 4.05748728 -26.08203037 4.05292398 -28.34179688 4.04882812 C-33.89455391 4.03777561 -39.44727225 4.02102024 -45 4 C-45 3.67 -45 3.34 -45 3 C-30.15 3 -15.3 3 0 3 C0 2.01 0 1.02 0 0 Z " fill="#F7D7E2" transform="translate(174,131)"/>
<path d="M0 0 C2.76055149 0.8717531 4.57623359 1.48411046 6.4375 3.75 C7.23683819 6.94735276 6.22231091 9.01212889 5 12 C3.85073734 11.04578192 2.70569459 10.08647955 1.5625 9.125 C0.92441406 8.59132813 0.28632813 8.05765625 -0.37109375 7.5078125 C-2 6 -2 6 -3 4 C-2.01 4 -1.02 4 0 4 C0 2.68 0 1.36 0 0 Z " fill="#FDCADD" transform="translate(183,70)"/>
<path d="M0 0 C0.99 0.99 1.98 1.98 3 3 C2.67 3.66 2.34 4.32 2 5 C2.66 5.33 3.32 5.66 4 6 C1.69 8.97 -0.62 11.94 -3 15 C-4.0707051 10.71717958 -3.91658005 8.27737355 -3 4 C-1.4375 1.5625 -1.4375 1.5625 0 0 Z " fill="#FBAAC9" transform="translate(47,48)"/>
<path d="M0 0 C0.99 0.33 1.98 0.66 3 1 C2.41992188 1.4846875 1.83984375 1.969375 1.2421875 2.46875 C-3.33003952 6.39211312 -7.17437767 10.24800134 -10.6484375 15.16796875 C-12.53573625 17.72618584 -14.6883619 19.82434061 -17 22 C-13.77174258 13.05177191 -6.76564013 6.44932449 0 0 Z " fill="#ECA8C0" transform="translate(65,44)"/>
<path d="M0 0 C0.99 0.33 1.98 0.66 3 1 C-2.76480037 10.44951813 -2.76480037 10.44951813 -8 13 C-9.68477344 14.31037934 -11.35648543 15.63823078 -13 17 C-12.4697989 12.97778475 -10.5114386 11.22763777 -7.625 8.5 C-4.79182758 5.8052562 -2.25466685 3.2001723 0 0 Z " fill="#CE3B6E" transform="translate(71,34)"/>
<path d="M0 0 C1.12921875 -0.01417969 2.2584375 -0.02835937 3.421875 -0.04296875 C6.25 0.1875 6.25 0.1875 8.25 2.1875 C7.4765625 2.16429688 6.703125 2.14109375 5.90625 2.1171875 C-3.43593983 1.95531787 -10.20913333 2.1494845 -17.3046875 8.75 C-18.4549282 9.89402318 -19.60286384 11.04036384 -20.75 12.1875 C-20.66837143 9.41212868 -20.16385605 7.66537797 -18.3359375 5.5546875 C-12.64476935 0.36494385 -7.60416455 0.04380279 0 0 Z " fill="#EBA5BD" transform="translate(159.75,75.8125)"/>
<path d="M0 0 C0.598125 0.350625 1.19625 0.70125 1.8125 1.0625 C1.8125 2.0525 1.8125 3.0425 1.8125 4.0625 C3.75147879 6.73648476 3.75147879 6.73648476 5.8125 9.0625 C5.1525 9.7225 4.4925 10.3825 3.8125 11.0625 C2.30367739 9.80215413 0.80565956 8.52886351 -0.6875 7.25 C-1.5228125 6.54230469 -2.358125 5.83460938 -3.21875 5.10546875 C-5.1875 3.0625 -5.1875 3.0625 -5.1875 0.0625 C-2.1875 -0.9375 -2.1875 -0.9375 0 0 Z " fill="#FCCADC" transform="translate(62.1875,178.9375)"/>
<path d="M0 0 C0.99 0.33 1.98 0.66 3 1 C-3.40058968 7.90041881 -9.83031199 13.30941867 -18 18 C-18.33 17.34 -18.66 16.68 -19 16 C-18.26394531 15.46890625 -17.52789062 14.9378125 -16.76953125 14.390625 C-15.79371094 13.68421875 -14.81789062 12.9778125 -13.8125 12.25 C-12.84957031 11.55390625 -11.88664063 10.8578125 -10.89453125 10.140625 C-5.74267107 6.70605939 -5.74267107 6.70605939 -2 2 C-1.34 2 -0.68 2 0 2 C0 1.34 0 0.68 0 0 Z " fill="#ECABC2" transform="translate(197,182)"/>
<path d="M0 0 C-0.99 0.33 -1.98 0.66 -3 1 C-3 1.66 -3 2.32 -3 3 C-2.05125 2.505 -1.1025 2.01 -0.125 1.5 C3 0 3 0 5 0 C4 3 4 3 2.1796875 3.94921875 C-2.75517738 5.53004835 -6.81897177 6.33070393 -12 6 C-10 5 -8 4 -6 3 C-7.65 2.67 -9.3 2.34 -11 2 C-11 1.67 -11 1.34 -11 1 C-9.5437328 0.63743142 -8.08488815 0.28520207 -6.625 -0.0625 C-5.40683594 -0.35833984 -5.40683594 -0.35833984 -4.1640625 -0.66015625 C-2 -1 -2 -1 0 0 Z " fill="#E592AF" transform="translate(208,133)"/>
<path d="M0 0 C-2.88434932 1.92289955 -5.4738827 3.04927271 -8.6875 4.3125 C-12.58505781 5.89514469 -16.11194513 7.56089596 -19.625 9.875 C-20.73875 10.57625 -21.8525 11.2775 -23 12 C-23.66 11.67 -24.32 11.34 -25 11 C-23.68 10.34 -22.36 9.68 -21 9 C-21 8.34 -21 7.68 -21 7 C-19.35 6.67 -17.7 6.34 -16 6 C-16 5.34 -16 4.68 -16 4 C-5.62642369 -0.59225513 -5.62642369 -0.59225513 0 0 Z " fill="#ECAFC4" transform="translate(100,27)"/>
<path d="M0 0 C0.66 0.33 1.32 0.66 2 1 C0.6240801 5.46392194 -1.33152884 7.48116543 -5 10.3125 C-5.886875 11.00988281 -6.77375 11.70726562 -7.6875 12.42578125 C-10 14 -10 14 -12 14 C-11 11 -11 11 -8.5625 9.0625 C-6.03855291 7.03103039 -5.35784834 5.81268585 -4 3 C-3.01 2.67 -2.02 2.34 -1 2 C-0.67 1.34 -0.34 0.68 0 0 Z " fill="#FCD6E3" transform="translate(191,178)"/>
<path d="M0 0 C-0.125 1.75 -0.125 1.75 -1 4 C-4.0625 6.25 -4.0625 6.25 -7 8 C-7 7.34 -7 6.68 -7 6 C-7.66 6 -8.32 6 -9 6 C-9 4.68 -9 3.36 -9 2 C-5.5647952 -0.29013653 -4.014669 -0.17842973 0 0 Z " fill="#FDC9DC" transform="translate(178,105)"/>
<path d="M0 0 C6.86026341 6.49919692 6.86026341 6.49919692 7.11328125 11.02734375 C7.12377975 13.01855955 7.06633794 15.00986185 7 17 C3.67483117 14.10388521 2.66421365 12.31738876 2 8 C1.34 7.01 0.68 6.02 0 5 C-0.125 2.3125 -0.125 2.3125 0 0 Z " fill="#FB84B5" transform="translate(202,49)"/>
<path d="M0 0 C0.99 0.33 1.98 0.66 3 1 C-0.50074982 5.17443363 -3.97950843 9.3145494 -8 13 C-8.66 13 -9.32 13 -10 13 C-8.65515286 8.95838045 -6.9494838 6.61321846 -3.875 3.6875 C-3.15054688 2.99011719 -2.42609375 2.29273438 -1.6796875 1.57421875 C-1.12539063 1.05472656 -0.57109375 0.53523438 0 0 Z " fill="#FDC4D9" transform="translate(59,40)"/>
<path d="M0 0 C0.99 0.495 0.99 0.495 2 1 C3.5195764 1.15123831 5.04472502 1.24881693 6.5703125 1.31640625 C7.91416016 1.37924805 7.91416016 1.37924805 9.28515625 1.44335938 C10.22230469 1.48267578 11.15945312 1.52199219 12.125 1.5625 C13.54232422 1.62727539 13.54232422 1.62727539 14.98828125 1.69335938 C17.32537092 1.79959072 19.6625683 1.90163176 22 2 C22 2.33 22 2.66 22 3 C16.06 3 10.12 3 4 3 C3.67 4.98 3.34 6.96 3 9 C2.01 9.495 2.01 9.495 1 10 C0.67 6.7 0.34 3.4 0 0 Z " fill="#DC5587" transform="translate(127,133)"/>
<path d="M0 0 C4.73789165 1.44323469 8.98858151 3.37226733 13.375 5.625 C14.01566406 5.94984375 14.65632813 6.2746875 15.31640625 6.609375 C16.87947501 7.40257407 18.44000622 8.20077031 20 9 C18.4453125 9.703125 18.4453125 9.703125 16 10 C13.49175346 9.01523808 11.24442747 7.99578145 8.875 6.75 C8.24207031 6.43675781 7.60914062 6.12351563 6.95703125 5.80078125 C3.70755865 4.13809994 2.06178511 3.09267766 0 0 Z " fill="#EEB7CA" transform="translate(71,199)"/>
<path d="M0 0 C-1.65 0.66 -3.3 1.32 -5 2 C-2.36 2 0.28 2 3 2 C-5.01162791 6.31395349 -5.01162791 6.31395349 -9.375 5.625 C-9.91125 5.41875 -10.4475 5.2125 -11 5 C-10.875 3.125 -10.875 3.125 -10 1 C-6.36961463 -0.69417984 -3.80522763 -1.46354909 0 0 Z " fill="#D44F7D" transform="translate(107,21)"/>
<path d="M0 0 C-1.49835228 4.66154042 -4.88463591 5.86610751 -9 8 C-9.22223194 5.25913944 -9.34781139 3.56036279 -7.875 1.1875 C-5.22464043 -0.49106106 -3.06753576 -0.20450238 0 0 Z " fill="#FDC7DA" transform="translate(216,124)"/>
<path d="M0 0 C0.33 0 0.66 0 1 0 C2.00846437 4.79020574 2.58033208 7.67993022 0.0625 12 C-0.618125 12.99 -1.29875 13.98 -2 15 C-3.18391699 11.30025941 -3.27585754 7.86200562 -3 4 C-1.5625 1.5625 -1.5625 1.5625 0 0 Z " fill="#F98EB8" transform="translate(133,77)"/>
<path d="M0 0 C1.485 0.99 1.485 0.99 3 2 C6.19806665 2.4603764 6.19806665 2.4603764 9.6875 2.625 C11.45673828 2.73714844 11.45673828 2.73714844 13.26171875 2.8515625 C14.61716797 2.92503906 14.61716797 2.92503906 16 3 C13.21466571 6.11990898 11.15654359 6.53816182 7 7 C7 6.01 7 5.02 7 4 C5.35 4 3.7 4 2 4 C1.34 2.68 0.68 1.36 0 0 Z " fill="#D44779" transform="translate(187,132)"/>
<path d="M0 0 C1.32 0.66 2.64 1.32 4 2 C3.67 3.32 3.34 4.64 3 6 C1.02 6 -0.96 6 -3 6 C-3 4.68 -3 3.36 -3 2 C-2.01 1.34 -1.02 0.68 0 0 Z " fill="#FDD1E1" transform="translate(105,149)"/>
<path d="M0 0 C0.66 0 1.32 0 2 0 C0.56759312 3.32997682 -1.18236524 5.3992896 -3.875 7.8125 C-4.55304688 8.43769531 -5.23109375 9.06289062 -5.9296875 9.70703125 C-8 11 -8 11 -10.2578125 10.69921875 C-10.83273438 10.46847656 -11.40765625 10.23773438 -12 10 C-10.6696875 9.1646875 -10.6696875 9.1646875 -9.3125 8.3125 C-6.15629131 6.21833309 -3.60542659 3.75430811 -1 1 C-0.67 0.67 -0.34 0.34 0 0 Z " fill="#E897B4" transform="translate(188,104)"/>
<path d="M0 0 C0.6875 1.625 0.6875 1.625 1 4 C-0.4375 7.25 -0.4375 7.25 -2 10 C-2.66 9.67 -3.32 9.34 -4 9 C-3.34 7.68 -2.68 6.36 -2 5 C-3.98 5 -5.96 5 -8 5 C-7 3 -7 3 -4 1.9375 C-2.515 1.4734375 -2.515 1.4734375 -1 1 C-0.67 0.67 -0.34 0.34 0 0 Z " fill="#F06CA0" transform="translate(182,159)"/>
<path d="M0 0 C0.88336837 2.4667645 1.1312406 3.63859372 0.22265625 6.140625 C-0.16019531 6.83671875 -0.54304687 7.5328125 -0.9375 8.25 C-1.31777344 8.95640625 -1.69804687 9.6628125 -2.08984375 10.390625 C-2.39019531 10.92171875 -2.69054687 11.4528125 -3 12 C-3.66 11.67 -4.32 11.34 -5 11 C-4.67 10.34 -4.34 9.68 -4 9 C-5.32 9 -6.64 9 -8 9 C-8 8.34 -8 7.68 -8 7 C-6.35 7 -4.7 7 -3 7 C-2.690625 6.030625 -2.38125 5.06125 -2.0625 4.0625 C-1 1 -1 1 0 0 Z " fill="#EE689D" transform="translate(219,116)"/>
<path d="M0 0 C0.33 0.99 0.66 1.98 1 3 C-0.28965176 4.37562854 -1.62689293 5.70766393 -3 7 C-3.66 7 -4.32 7 -5 7 C-6.36161311 7.96113866 -7.69855198 8.95884159 -9 10 C-7.43218469 5.53775641 -5.99772437 3.08447895 -1.8125 0.8125 C-1.214375 0.544375 -0.61625 0.27625 0 0 Z " fill="#CF3B6E" transform="translate(142,78)"/>
<path d="M0 0 C0.66 0 1.32 0 2 0 C2.33 0.99 2.66 1.98 3 3 C2.67 3.33 2.34 3.66 2 4 C1.76924918 5.34747084 1.58846937 6.70377565 1.4375 8.0625 C1.2209375 10.0115625 1.2209375 10.0115625 1 12 C-0.5625 11 -0.5625 11 -2 9 C-2.01689698 6.19510065 -1.5386319 3.78293146 -1 1 C-0.67 0.67 -0.34 0.34 0 0 Z " fill="#E14A84" transform="translate(189,76)"/>
<path d="M0 0 C-1.65 0.66 -3.3 1.32 -5 2 C-1.37 2.33 2.26 2.66 6 3 C6 3.33 6 3.66 6 4 C1.38 4.33 -3.24 4.66 -8 5 C-8 3.68 -8 2.36 -8 1 C-4.93251126 -0.86240388 -3.40254489 -1.2151946 0 0 Z " fill="#D75684" transform="translate(157,72)"/>
<path d="M0 0 C5.29333218 0.51642265 8.63789377 2.09192918 13 5 C13.33 5.99 13.66 6.98 14 8 C9.02790438 6.23570801 4.56561939 3.6060834 0 1 C0 0.67 0 0.34 0 0 Z " fill="#EDB0C5" transform="translate(163,32)"/>
<path d="M0 0 C0.78375 0.04125 1.5675 0.0825 2.375 0.125 C1.37769864 2.6182534 0.72425469 3.89967439 -1.5625 5.375 C-3.625 6.125 -3.625 6.125 -6.625 6.125 C-3.85227273 0.18344156 -3.85227273 0.18344156 0 0 Z " fill="#CE3A6D" transform="translate(95.625,22.875)"/>
<path d="M0 0 C-1.32 0.99 -2.64 1.98 -4 3 C-2.68 3.33 -1.36 3.66 0 4 C-3.21451269 5.60725635 -6.43612536 5.05748185 -10 5 C-9.375 3.125 -9.375 3.125 -8 1 C-2.66666667 -1.33333333 -2.66666667 -1.33333333 0 0 Z " fill="#D55280" transform="translate(173,173)"/>
<path d="M0 0 C0.75410156 0.00451172 1.50820312 0.00902344 2.28515625 0.01367188 C4.14847127 0.02546501 6.01174555 0.04340058 7.875 0.0625 C7.875 0.3925 7.875 0.7225 7.875 1.0625 C7.08996094 1.09988281 6.30492187 1.13726562 5.49609375 1.17578125 C-0.70800901 1.56401345 -5.59926876 2.17404958 -11.125 5.0625 C-10.75 3.125 -10.75 3.125 -10.125 1.0625 C-6.93675432 -0.53162284 -3.49603338 -0.03924735 0 0 Z " fill="#F0BBCD" transform="translate(152.125,138.9375)"/>
<path d="M0 0 C0.66 0.33 1.32 0.66 2 1 C1.67 1.66 1.34 2.32 1 3 C1.66 3.33 2.32 3.66 3 4 C0.04816899 6.95183101 -2.95511947 7.08663988 -7 8 C-7 7.34 -7 6.68 -7 6 C-5.46875 4.4921875 -5.46875 4.4921875 -3.5 2.875 C-2.8503125 2.33617187 -2.200625 1.79734375 -1.53125 1.2421875 C-1.0259375 0.83226562 -0.520625 0.42234375 0 0 Z " fill="#D34C7B" transform="translate(212,128)"/>
<path d="M0 0 C0.33 0.66 0.66 1.32 1 2 C0.3507041 3.34187818 -0.31731862 4.67479497 -1 6 C-1 6.99 -1 7.98 -1 9 C-1.99 9.33 -2.98 9.66 -4 10 C-4.25 6.6875 -4.25 6.6875 -4 3 C-2 1.0625 -2 1.0625 0 0 Z " fill="#FDC8DC" transform="translate(138,73)"/>
<path d="M0 0 C4.64973854 0.44787324 6.37027468 2.02185597 9.3125 5.5625 C10.00988281 6.38878906 10.70726562 7.21507812 11.42578125 8.06640625 C11.94527344 8.70449219 12.46476563 9.34257813 13 10 C8.87731395 10 7.79669528 8.32277298 4.8125 5.5625 C3.91144531 4.73878906 3.01039063 3.91507813 2.08203125 3.06640625 C1.39496094 2.38449219 0.70789063 1.70257813 0 1 C0 0.67 0 0.34 0 0 Z " fill="#EFB7CB" transform="translate(177,40)"/>
<path d="M0 0 C9.41002278 -0.3690205 9.41002278 -0.3690205 14 2 C14 2.33 14 2.66 14 3 C4.58997722 3.3690205 4.58997722 3.3690205 0 1 C0 0.67 0 0.34 0 0 Z " fill="#E490AE" transform="translate(91,209)"/>
<path d="M0 0 C2.35171131 0.59861742 4.6859378 1.26924352 7 2 C7.33 2.66 7.66 3.32 8 4 C6.68 4 5.36 4 4 4 C3.67 4.99 3.34 5.98 3 7 C0 3.375 0 3.375 0 0 Z " fill="#FCA2C6" transform="translate(139,162)"/>
<path d="M0 0 C0.99 0.33 1.98 0.66 3 1 C3.33 1.99 3.66 2.98 4 4 C2.68 5.32 1.36 6.64 0 8 C-1.125 6.25 -1.125 6.25 -2 4 C-1.125 1.75 -1.125 1.75 0 0 Z " fill="#FD97C0" transform="translate(189,126)"/>
<path d="M0 0 C1.32 0.33 2.64 0.66 4 1 C4 4 4 4 3 7 C-0.875 5.25 -0.875 5.25 -2 3 C-1.34 3 -0.68 3 0 3 C0 2.01 0 1.02 0 0 Z " fill="#FEBDD5" transform="translate(185,123)"/>
<path d="M0 0 C2.97 0 5.94 0 9 0 C9 0.99 9 1.98 9 3 C6.36 3 3.72 3 1 3 C0.67 2.01 0.34 1.02 0 0 Z " fill="#DB6890" transform="translate(98,175)"/>
<path d="M0 0 C0.99 0.33 1.98 0.66 3 1 C3 1.99 3 2.98 3 4 C2.34 4 1.68 4 1 4 C0.67 5.32 0.34 6.64 0 8 C-1.32 6.35 -2.64 4.7 -4 3 C-3.34 3 -2.68 3 -2 3 C-1.34 2.01 -0.68 1.02 0 0 Z " fill="#FDADCC" transform="translate(75,70)"/>
<path d="M0 0 C0.33 0 0.66 0 1 0 C0.56179109 4.55737263 0.14958831 7.57653445 -3 11 C-3.75 8.3125 -3.75 8.3125 -4 5 C-2.125 2.125 -2.125 2.125 0 0 Z " fill="#F05697" transform="translate(43,54)"/>
<path d="M0 0 C4.82034262 0.41317222 6.90992611 2.38019915 10 6 C10 6.66 10 7.32 10 8 C6.05205855 6.32971708 3.18203882 3.8204435 0 1 C0 0.67 0 0.34 0 0 Z " fill="#F9C7D9" transform="translate(185,39)"/>
<path d="M0 0 C1.32 0.33 2.64 0.66 4 1 C3.34 2.65 2.68 4.3 2 6 C0.68 6 -0.64 6 -2 6 C-1.34 4.02 -0.68 2.04 0 0 Z " fill="#D04273" transform="translate(176,194)"/>
<path d="M0 0 C3.15268314 4.72902471 5.52668153 9.20650322 5 15 C2.2793344 13.6396672 1.72045866 11.71347505 0.59765625 8.98828125 C-0.30882659 5.97259651 -0.1907853 3.11615984 0 0 Z " fill="#E34D87" transform="translate(135,152)"/>
<path d="M0 0 C0.33 0 0.66 0 1 0 C1.25 2.75 1.25 2.75 1 6 C-1 8.375 -1 8.375 -3 10 C-3.23226952 6.59338044 -3.35720302 4.59016151 -1.5625 1.625 C-0.7890625 0.820625 -0.7890625 0.820625 0 0 Z " fill="#FD8EBB" transform="translate(47,48)"/>
<path d="M0 0 C7.75 0.875 7.75 0.875 10 2 C10 2.66 10 3.32 10 4 C11.65 4.33 13.3 4.66 15 5 C11.23375329 6.25541557 9.62811066 5.37061958 6 4 C6 3.34 6 2.68 6 2 C3.03 1.505 3.03 1.505 0 1 C0 0.67 0 0.34 0 0 Z " fill="#E491AE" transform="translate(144,24)"/>
<path d="M0 0 C0.66 0.33 1.32 0.66 2 1 C0.88200014 2.33920838 -0.24461897 3.67122556 -1.375 5 C-2.00148437 5.7425 -2.62796875 6.485 -3.2734375 7.25 C-4.12808594 8.11625 -4.12808594 8.11625 -5 9 C-5.66 9 -6.32 9 -7 9 C-5.44499019 5.18315774 -2.96404505 2.80804268 0 0 Z " fill="#E996B3" transform="translate(190,164)"/>
<path d="M0 0 C1.32 0.66 2.64 1.32 4 2 C2.1875 4.5 2.1875 4.5 0 7 C-0.99 7 -1.98 7 -3 7 C-1.125 2.25 -1.125 2.25 0 0 Z " fill="#F15798" transform="translate(201,161)"/>
<path d="M0 0 C0.99 0.99 1.98 1.98 3 3 C2.34 4.98 1.68 6.96 1 9 C-0.32 7.68 -1.64 6.36 -3 5 C-2.34 4.67 -1.68 4.34 -1 4 C-0.34786708 1.97536745 -0.34786708 1.97536745 0 0 Z " fill="#FDA8C9" transform="translate(187,73)"/>
<path d="M0 0 C0.33 0.99 0.66 1.98 1 3 C-0.43359375 5.26171875 -0.43359375 5.26171875 -2.4375 7.6875 C-3.09621094 8.49574219 -3.75492188 9.30398437 -4.43359375 10.13671875 C-4.95050781 10.75160156 -5.46742187 11.36648437 -6 12 C-6.33 11.34 -6.66 10.68 -7 10 C-3.535 5.05 -3.535 5.05 0 0 Z " fill="#E2709A" transform="translate(55,54)"/>
<path d="M0 0 C0.99 0.33 1.98 0.66 3 1 C1.38405168 3.04119788 -0.2856382 5.04072937 -2 7 C-2.66 7 -3.32 7 -4 7 C-3.43628586 3.73045798 -2.50037734 2.17424117 0 0 Z " fill="#FCD0E0" transform="translate(59,40)"/>
<path d="M0 0 C0.763125 0.0825 1.52625 0.165 2.3125 0.25 C0.9925 1.9 -0.3275 3.55 -1.6875 5.25 C-3.0075 4.92 -4.3275 4.59 -5.6875 4.25 C-3.34903846 0.31153846 -3.34903846 0.31153846 0 0 Z " fill="#FFB3CF" transform="translate(194.6875,172.75)"/>
<path d="M0 0 C3.48330216 0.64505596 6.09432866 1.98217268 9 4 C9 4.66 9 5.32 9 6 C5.59687262 4.94124926 2.98646769 3.99097846 0 2 C0 1.34 0 0.68 0 0 Z " fill="#E89DB7" transform="translate(134,170)"/>
<path d="M0 0 C1.32 0.66 2.64 1.32 4 2 C2.25 4.0625 2.25 4.0625 0 6 C-2.25 5.75 -2.25 5.75 -4 5 C-2.68 3.35 -1.36 1.7 0 0 Z " fill="#FE8EBB" transform="translate(197,167)"/>
<path d="M0 0 C2.9375 0.75 2.9375 0.75 6 2 C6.875 4.125 6.875 4.125 7 6 C5.1875 5.8125 5.1875 5.8125 3 5 C1.25 2.4375 1.25 2.4375 0 0 Z " fill="#EF5494" transform="translate(44,161)"/>
<path d="M0 0 C0.66 0.33 1.32 0.66 2 1 C0.25 5.875 0.25 5.875 -2 7 C-2 6.34 -2 5.68 -2 5 C-2.99 5.33 -3.98 5.66 -5 6 C-4.67 5.01 -4.34 4.02 -4 3 C-3.01 2.67 -2.02 2.34 -1 2 C-0.67 1.34 -0.34 0.68 0 0 Z " fill="#FCC9DB" transform="translate(191,178)"/>
<path d="M0 0 C0.99 0.99 1.98 1.98 3 3 C2 4 2 4 -1.16015625 4.09765625 C-3.09181641 4.08025391 -3.09181641 4.08025391 -5.0625 4.0625 C-6.35285156 4.05347656 -7.64320313 4.04445312 -8.97265625 4.03515625 C-9.97167969 4.02355469 -10.97070312 4.01195312 -12 4 C-12 3.67 -12 3.34 -12 3 C-8.04 3 -4.08 3 0 3 C0 2.01 0 1.02 0 0 Z " fill="#EFAFC6" transform="translate(174,131)"/>
<path d="M0 0 C0.66 0.66 1.32 1.32 2 2 C1.7578125 4.1640625 1.7578125 4.1640625 1.125 6.625 C0.92132812 7.44226563 0.71765625 8.25953125 0.5078125 9.1015625 C0.34023438 9.72804688 0.17265625 10.35453125 0 11 C-0.33 11 -0.66 11 -1 11 C-1.125 3.375 -1.125 3.375 0 0 Z " fill="#D83975" transform="translate(31,87)"/>
<path d="M0 0 C2.375 0.3125 2.375 0.3125 5 1 C7 4 7 4 6.625 6.1875 C6.41875 6.785625 6.2125 7.38375 6 8 C5.62875 7.13375 5.62875 7.13375 5.25 6.25 C3.83316683 3.6997003 2.12372463 1.98214299 0 0 Z " fill="#E586A8" transform="translate(168,78)"/>
<path d="M0 0 C0.99 0.66 1.98 1.32 3 2 C0.69 3.65 -1.62 5.3 -4 7 C-4.33 6.01 -4.66 5.02 -5 4 C-3.35 2.68 -1.7 1.36 0 0 Z " fill="#FAD1DF" transform="translate(67,34)"/>
<path d="M0 0 C3.43595166 1.52708963 6.11912454 3.59927045 9 6 C6.1875 5.8125 6.1875 5.8125 3 5 C1.125 2.4375 1.125 2.4375 0 0 Z " fill="#E289A7" transform="translate(64,193)"/>
<path d="M0 0 C1.65 0 3.3 0 5 0 C5.66 1.32 6.32 2.64 7 4 C5.68 4 4.36 4 3 4 C3 3.34 3 2.68 3 2 C2.01 1.67 1.02 1.34 0 1 C0 0.67 0 0.34 0 0 Z " fill="#FFA2C5" transform="translate(50,170)"/>
<path d="M0 0 C2.31 0 4.62 0 7 0 C6.34 1.65 5.68 3.3 5 5 C4.67 4.01 4.34 3.02 4 2 C1.98491642 1.26676204 1.98491642 1.26676204 0 1 C0 0.67 0 0.34 0 0 Z " fill="#FDB8D2" transform="translate(173,164)"/>
<path d="M0 0 C2.75 -0.25 2.75 -0.25 6 0 C8.375 2 8.375 2 10 4 C6.13304322 4 3.4911548 2.58090029 0 1 C0 0.67 0 0.34 0 0 Z " fill="#EBA9BF" transform="translate(162,124)"/>
<path d="M0 0 C0.66 0.33 1.32 0.66 2 1 C0.8125 2.5 0.8125 2.5 -1 4 C-3.6875 4.1875 -3.6875 4.1875 -6 4 C-3.94766315 1.7522025 -2.99332739 0.9977758 0 0 Z " fill="#CA2F65" transform="translate(156,205)"/>
<path d="M0 0 C0.66 0.33 1.32 0.66 2 1 C-0.97 4.96 -0.97 4.96 -4 9 C-4.33 8.01 -4.66 7.02 -5 6 C-3.59554165 3.7363436 -1.8032087 1.9791315 0 0 Z " fill="#E88EAD" transform="translate(205,173)"/>
<path d="M0 0 C0.99 0.66 1.98 1.32 3 2 C3 2.99 3 3.98 3 5 C-1.875 3.25 -1.875 3.25 -3 1 C-2.01 0.67 -1.02 0.34 0 0 Z " fill="#FC81B4" transform="translate(51,166)"/>
<path d="M0 0 C0.33 0.66 0.66 1.32 1 2 C-0.32 3.65 -1.64 5.3 -3 7 C-3.66 6.34 -4.32 5.68 -5 5 C-3.35 3.35 -1.7 1.7 0 0 Z " fill="#F997BD" transform="translate(206,162)"/>
<path d="M0 0 C2.52588702 2.36292656 3.88820837 3.66462511 5 7 C4.34 7.66 3.68 8.32 3 9 C0 3.375 0 3.375 0 0 Z " fill="#F17AA8" transform="translate(39,154)"/>
<path d="M0 0 C0.99 0.33 1.98 0.66 3 1 C0.78065836 4.32901247 -0.34683329 4.75023244 -4 6 C-4 5.01 -4 4.02 -4 3 C-3.01 3 -2.02 3 -1 3 C-0.67 2.01 -0.34 1.02 0 0 Z " fill="#FAC9DB" transform="translate(176,115)"/>
<path d="M0 0 C0.66 0 1.32 0 2 0 C2 1.32 2 2.64 2 4 C1.34 4 0.68 4 0 4 C-0.33 4.66 -0.66 5.32 -1 6 C-1 5.34 -1 4.68 -1 4 C-2.65 4 -4.3 4 -6 4 C-6 3.67 -6 3.34 -6 3 C-5.195625 2.87625 -4.39125 2.7525 -3.5625 2.625 C-2.716875 2.41875 -1.87125 2.2125 -1 2 C-0.67 1.34 -0.34 0.68 0 0 Z " fill="#F26EA3" transform="translate(179,101)"/>
<path d="M0 0 C3.00617269 3.00617269 2.59585316 5.82381598 3 10 C0.50939295 7.50939295 -0.08717042 5.37044767 -1 2 C-0.67 1.34 -0.34 0.68 0 0 Z " fill="#E4538A" transform="translate(214,75)"/>
</svg>
